<?xml version="1.0" encoding="UTF-8" standalone="no"?>
<!-- Created with Inkscape (http://www.inkscape.org/) -->

<svg
   width="125.9706mm"
   height="23.3944mm"
   viewBox="0 0 125.9706 23.394399"
   version="1.1"
   id="svg1"
   inkscape:version="1.4.4 (dcaf3e7, 2026-05-05)"
   sodipodi:docname="SF_Card_Ranked_Special.svg"
   xml:space="preserve"
   inkscape:export-batch-name="SF_Duel"
   inkscape:export-batch-path="SFD_340x459_long"
   xmlns:inkscape="http://www.inkscape.org/namespaces/inkscape"
   xmlns:sodipodi="http://sodipodi.sourceforge.net/DTD/sodipodi-0.dtd"
   xmlns:xlink="http://www.w3.org/1999/xlink"
   xmlns="http://www.w3.org/2000/svg"
   xmlns:svg="http://www.w3.org/2000/svg"><sodipodi:namedview
     id="namedview1"
     pagecolor="#ffffff"
     bordercolor="#000000"
     borderopacity="0.25"
     inkscape:showpageshadow="2"
     inkscape:pageopacity="0.0"
     inkscape:pagecheckerboard="0"
     inkscape:deskcolor="#d1d1d1"
     inkscape:document-units="mm"
     inkscape:zoom="0.02"
     inkscape:cx="-8775"
     inkscape:cy="7175"
     inkscape:window-width="2560"
     inkscape:window-height="1369"
     inkscape:window-x="-8"
     inkscape:window-y="-8"
     inkscape:window-maximized="1"
     inkscape:current-layer="layer1"
     inkscape:lockguides="false"
     showguides="true"><inkscape:page
       x="0"
       y="0"
       width="125.9706"
       height="23.3944"
       id="page1"
       margin="0"
       bleed="0" /></sodipodi:namedview><defs
     id="defs1"><linearGradient
       id="linearGradient37"
       inkscape:collect="always"><stop
         style="stop-color:#d9a6f5;stop-opacity:1"
         offset="0"
         id="stop35" /><stop
         style="stop-color:#c8d3e8;stop-opacity:1;"
         offset="0.64162618"
         id="stop36" /><stop
         style="stop-color:#d2dbf3;stop-opacity:1"
         offset="1"
         id="stop37" /></linearGradient><linearGradient
       id="linearGradient1008"
       inkscape:collect="always"><stop
         style="stop-color:#d9a6f5;stop-opacity:1"
         offset="0"
         id="stop1008" /><stop
         style="stop-color:#c8d3e8;stop-opacity:1;"
         offset="0.89152539"
         id="stop1010" /><stop
         style="stop-color:#c6d9e7;stop-opacity:1"
         offset="1"
         id="stop1009" /></linearGradient><filter
       inkscape:collect="always"
       style="color-interpolation-filters:sRGB"
       id="filter514"
       x="-0.97199998"
       y="-0.97199998"
       width="2.944"
       height="2.944"><feGaussianBlur
         inkscape:collect="always"
         stdDeviation="268.20905"
         id="feGaussianBlur514" /></filter><linearGradient
       inkscape:collect="always"
       xlink:href="#linearGradient1008"
       id="linearGradient1956"
       gradientUnits="userSpaceOnUse"
       gradientTransform="translate(-1099.9018,273.5358)"
       x1="2516.5293"
       y1="1163.2469"
       x2="3178.7739"
       y2="1163.2469" /><linearGradient
       inkscape:collect="always"
       xlink:href="#linearGradient37"
       id="linearGradient12"
       gradientUnits="userSpaceOnUse"
       gradientTransform="matrix(0.32382193,0,0,0.32382193,-3111.0052,2134.6076)"
       x1="-4508.25"
       y1="3153.5325"
       x2="-4462.0425"
       y2="3153.5325" /><linearGradient
       inkscape:collect="always"
       xlink:href="#linearGradient37"
       id="linearGradient13"
       gradientUnits="userSpaceOnUse"
       x1="-4583.5244"
       y1="3155.7395"
       x2="-4457.5537"
       y2="3155.7395" /></defs><g
     inkscape:label="Слой 1"
     inkscape:groupmode="layer"
     id="layer1"
     transform="translate(4759.3909,-3340.6116)"><circle
       style="opacity:0.5;mix-blend-mode:normal;fill:url(#linearGradient1956);stroke-width:0.264583;filter:url(#filter514)"
       id="circle1955"
       cx="1747.7498"
       cy="1436.7827"
       r="331.12228"
       transform="matrix(1.0343694,0,0,1.0343694,-6633.2089,1026.4051)" /><g
       id="g12"
       transform="translate(-175.86647,196.56943)"><path
         id="path9"
         style="opacity:1;fill:#0d0d11;fill-opacity:1;stroke-width:0.22182"
         d="m -4571.6407,3145.9327 h 102.2032 c 5.4329,0 9.8067,4.3737 9.8067,9.8067 0,5.4329 -4.3738,9.8066 -9.8067,9.8066 h -102.2032 c -5.433,0 -9.8067,-4.3737 -9.8067,-9.8066 0,-5.433 4.3737,-9.8067 9.8067,-9.8067 z"
         sodipodi:nodetypes="sssssss" /><g
         id="g11"
         transform="translate(5.5523541,-0.05090949)"><path
           d="m -4563.394,3162.2611 c -0.076,0 -0.1513,-0.02 -0.2191,-0.059 -0.074,-0.042 -1.8234,-1.0584 -3.5982,-2.5892 -1.0519,-0.9071 -1.8916,-1.807 -2.4957,-2.6744 -0.7817,-1.1224 -1.1748,-2.202 -1.1684,-3.2089 0.01,-1.1716 0.427,-2.2734 1.1817,-3.1025 0.7673,-0.8431 1.7914,-1.3074 2.8837,-1.3074 1.3997,0 2.6795,0.7842 3.4161,2.0263 0.7365,-1.2421 2.0163,-2.0263 3.4161,-2.0263 1.0318,0 2.0163,0.419 2.7722,1.1796 0.8295,0.8347 1.3008,2.0142 1.2931,3.2359 -0.01,1.0051 -0.4068,2.0831 -1.1903,3.2039 -0.6059,0.867 -1.4444,1.7664 -2.4922,2.6734 -1.7683,1.5305 -3.5055,2.5464 -3.5786,2.5889 -0.068,0.039 -0.1443,0.059 -0.2204,0.059 z"
           id="path10"
           style="fill:url(#linearGradient12);stroke-width:0.0292247" /><text
           xml:space="preserve"
           style="font-style:normal;font-variant:normal;font-weight:900;font-stretch:normal;font-size:14.1111px;font-family:Montserrat;-inkscape-font-specification:'Montserrat Heavy';letter-spacing:0.264583px;writing-mode:lr-tb;direction:ltr;fill:#f9f9f9;fill-opacity:1;stroke-width:0.264583"
           x="-4546.7231"
           y="3160.7295"
           id="text11"><tspan
             sodipodi:role="line"
             id="tspan11"
             style="font-style:normal;font-variant:normal;font-weight:900;font-stretch:normal;font-size:14.1111px;font-family:Montserrat;-inkscape-font-specification:'Montserrat Heavy';letter-spacing:0.264583px;fill:#f9f9f9;fill-opacity:1;stroke-width:0.264583"
             x="-4546.7231"
             y="3160.7295">DONATE</tspan></text></g><path
         id="path11"
         style="opacity:1;fill:url(#linearGradient13);fill-opacity:1;stroke-width:0.264583"
         d="m -4571.8274,3144.0422 c -6.4803,0 -11.697,5.2172 -11.697,11.6975 0,6.4803 5.2167,11.6969 11.697,11.6969 h 102.5762 c 6.4802,0 11.6974,-5.2166 11.6974,-11.6969 0,-6.4803 -5.2172,-11.6975 -11.6974,-11.6975 z m 102.8929,1.0454 c 3.0466,0.1444 6.016,1.5086 7.9427,3.9155 2.7634,3.3614 3.1752,8.4384 0.9074,12.1673 -1.8068,3.0076 -5.0769,5.0456 -8.5674,5.1883 -34.4904,0.035 -68.9834,0.01 -103.4727,0.025 -3.8449,-0.1183 -7.5214,-2.3671 -9.2015,-5.8415 -1.6165,-3.1617 -1.5265,-7.3053 0.4191,-10.3761 1.7626,-2.8979 5.0728,-4.895 8.401,-5.0457 34.0876,-0.029 68.1756,-0.019 102.2635,-0.019 v -6e-4 c 0.4355,-0.03 0.8727,-0.034 1.3079,-0.013 z" /></g></g></svg>
