<?xml version="1.0" encoding="UTF-8" standalone="no"?>
<!-- Created with Inkscape (http://www.inkscape.org/) -->

<svg
   width="173.34888mm"
   height="39.706184mm"
   viewBox="0 0 173.34888 39.706184"
   version="1.1"
   id="svg1"
   inkscape:version="1.4.4 (dcaf3e7, 2026-05-05)"
   sodipodi:docname="SF_Card_Ranked_Special.svg"
   xml:space="preserve"
   inkscape:export-batch-name="SF_Duel"
   inkscape:export-batch-path="SFD_340x459_long"
   xmlns:inkscape="http://www.inkscape.org/namespaces/inkscape"
   xmlns:sodipodi="http://sodipodi.sourceforge.net/DTD/sodipodi-0.dtd"
   xmlns:xlink="http://www.w3.org/1999/xlink"
   xmlns="http://www.w3.org/2000/svg"
   xmlns:svg="http://www.w3.org/2000/svg"><sodipodi:namedview
     id="namedview1"
     pagecolor="#ffffff"
     bordercolor="#000000"
     borderopacity="0.25"
     inkscape:showpageshadow="2"
     inkscape:pageopacity="0.0"
     inkscape:pagecheckerboard="0"
     inkscape:deskcolor="#d1d1d1"
     inkscape:document-units="mm"
     inkscape:zoom="0.02"
     inkscape:cx="-8775"
     inkscape:cy="7175"
     inkscape:window-width="2560"
     inkscape:window-height="1369"
     inkscape:window-x="-8"
     inkscape:window-y="-8"
     inkscape:window-maximized="1"
     inkscape:current-layer="layer1"
     inkscape:lockguides="false"
     showguides="true"><inkscape:page
       x="0"
       y="0"
       width="173.34888"
       height="39.706184"
       id="page1"
       margin="0"
       bleed="0" /></sodipodi:namedview><defs
     id="defs1"><linearGradient
       id="linearGradient1013"
       inkscape:collect="always"><stop
         style="stop-color:#d9a6f5;stop-opacity:1"
         offset="0"
         id="stop1011" /><stop
         style="stop-color:#c8d3e8;stop-opacity:1;"
         offset="0.51392436"
         id="stop1012" /><stop
         style="stop-color:#d2dbf3;stop-opacity:1"
         offset="1"
         id="stop1013" /></linearGradient><linearGradient
       id="linearGradient1008"
       inkscape:collect="always"><stop
         style="stop-color:#d9a6f5;stop-opacity:1"
         offset="0"
         id="stop1008" /><stop
         style="stop-color:#c8d3e8;stop-opacity:1;"
         offset="0.89152539"
         id="stop1010" /><stop
         style="stop-color:#c6d9e7;stop-opacity:1"
         offset="1"
         id="stop1009" /></linearGradient><filter
       inkscape:collect="always"
       style="color-interpolation-filters:sRGB"
       id="filter514"
       x="-0.97199998"
       y="-0.97199998"
       width="2.944"
       height="2.944"><feGaussianBlur
         inkscape:collect="always"
         stdDeviation="268.20905"
         id="feGaussianBlur514" /></filter><linearGradient
       inkscape:collect="always"
       xlink:href="#linearGradient1008"
       id="linearGradient1956"
       gradientUnits="userSpaceOnUse"
       gradientTransform="translate(-1099.9018,273.5358)"
       x1="2516.5293"
       y1="1163.2469"
       x2="3178.7739"
       y2="1163.2469" /><linearGradient
       inkscape:collect="always"
       xlink:href="#linearGradient1013"
       id="linearGradient8"
       gradientUnits="userSpaceOnUse"
       gradientTransform="matrix(0.9571149,0,0,0.9571149,-275.4213,98.019348)"
       x1="-5167.3701"
       y1="2009.4224"
       x2="-5137.519"
       y2="2009.4224" /><linearGradient
       inkscape:collect="always"
       xlink:href="#linearGradient1008"
       id="linearGradient9"
       gradientUnits="userSpaceOnUse"
       x1="-5104.8916"
       y1="2007.75"
       x2="-5102.5103"
       y2="2033.6639" /></defs><g
     inkscape:label="Слой 1"
     inkscape:groupmode="layer"
     id="layer1"
     transform="translate(4227.5476,-2805.0861)"><circle
       style="opacity:0.5;mix-blend-mode:normal;fill:url(#linearGradient1956);stroke-width:0.264583;filter:url(#filter514)"
       id="circle1955"
       cx="1747.7498"
       cy="1436.7827"
       r="331.12228"
       transform="matrix(1.0343694,0,0,1.0343694,-6633.2089,1026.4051)" /><g
       id="g8"
       transform="matrix(2.2176908,0,0,2.2176908,7351.4328,-1657.6066)"
       inkscape:export-filename="header_logo.svg"
       inkscape:export-xdpi="255.90787"
       inkscape:export-ydpi="255.90787"><path
         id="path6"
         style="fill:url(#linearGradient8);stroke-width:0.0921841"
         d="m -5206.9032,2012.3151 -9.0706,15.0393 -1.0358,-6.1125 h 1.6026 l 2.4957,-4.3249 -4.6938,0.8172 v -0.01 l -2.1874,0.3878 -1.3954,0.2428 0.019,0.016 2.0081,11.8483 h 3.6735 v -2e-4 h 1.7094 l 6.8749,-11.3992 6.8751,11.3992 h 3.9251 l -3e-4,-3e-4 h 1.4592 l 2.008,-11.8482 0.019,-0.016 -1.3954,-0.243 -2.1873,-0.3876 v 0.01 l -4.6941,-0.8171 2.4961,4.3245 h 1.6026 l -1.0366,6.1144 z m 3e-4,12.5592 -3.2231,5.344 h 6.4461 z" /><g
         id="g7"
         transform="matrix(0.67165483,0,0,0.67165483,-1718.7965,667.26712)"><path
           d="m -5168.5965,2029.2451 v -9.8778 h 4.6143 q 2.2719,0 3.4572,1.0019 1.1853,1.0019 1.1853,2.7235 0,1.143 -0.5503,1.9755 -0.5503,0.8185 -1.5663,1.2559 -1.0019,0.4375 -2.3848,0.4375 h -2.9069 l 1.4817,-1.3688 v 3.8523 z m 5.9125,0 -2.4271,-3.5983 h 3.5278 l 2.4553,3.5983 z m -2.5823,-3.4854 -1.4817,-1.5099 h 2.6952 q 0.6915,0 1.016,-0.3105 0.3387,-0.3104 0.3387,-0.8466 0,-0.5362 -0.3387,-0.8467 -0.3245,-0.3104 -1.016,-0.3104 h -2.6952 l 1.4817,-1.5099 z m 6.6119,3.4854 4.318,-9.8778 h 3.2738 l 4.318,9.8778 h -3.4431 l -3.1891,-8.2973 h 1.2982 l -3.1891,8.2973 z m 2.5682,-1.7215 0.8467,-2.3989 h 4.5438 l 0.8466,2.3989 z m 10.3796,1.7215 v -9.8778 h 2.7375 l 5.0236,6.0114 h -1.27 v -6.0114 h 3.2456 v 9.8778 h -2.7376 l -5.0235,-6.0113 h 1.2699 v 6.0113 z m 14.8246,-2.1166 -0.1835,-3.6548 3.7254,-4.1064 h 3.6265 l -4.1769,4.6003 -1.8485,1.8909 z m -2.9775,2.1166 v -9.8778 h 3.2738 v 9.8778 z m 6.4911,0 -2.9068,-3.8382 2.159,-2.286 4.6002,6.1242 z"
           id="text6"
           style="font-weight:900;font-size:14.1111px;font-family:Montserrat;-inkscape-font-specification:'Montserrat Heavy';letter-spacing:0.501809px;fill:#f9f9f9;stroke-width:0.16727"
           aria-label="RANK" /><path
           d="m -5120.368,2029.2451 v -9.8778 h 2.7375 l 3.9511,6.4488 h -1.4393 l 3.8382,-6.4488 h 2.7376 l 0.028,9.8778 h -3.0339 l -0.028,-5.3058 h 0.4798 l -2.6247,4.4168 h -1.4676 l -2.7375,-4.4168 h 0.5927 v 5.3058 z m 13.9638,0 v -9.8778 h 8.0292 v 2.5118 h -4.7555 v 4.8542 h 4.9389 v 2.5118 z m 3.048,-3.81 v -2.3989 h 4.4026 v 2.3989 z"
           id="text7"
           style="font-weight:900;font-size:14.1111px;font-family:Montserrat;-inkscape-font-specification:'Montserrat Heavy';letter-spacing:0.501809px;fill:url(#linearGradient9);stroke-width:0.16727"
           aria-label="ME" /></g></g></g></svg>
