<?xml version="1.0" encoding="UTF-8" standalone="no"?>
<!-- Created with Inkscape (http://www.inkscape.org/) -->

<svg
   width="127.92348mm"
   height="19.915442mm"
   viewBox="0 0 127.92348 19.915441"
   version="1.1"
   id="svg1"
   inkscape:version="1.4.4 (dcaf3e7, 2026-05-05)"
   sodipodi:docname="RankMe_footer_left.svg"
   xmlns:inkscape="http://www.inkscape.org/namespaces/inkscape"
   xmlns:sodipodi="http://sodipodi.sourceforge.net/DTD/sodipodi-0.dtd"
   xmlns:xlink="http://www.w3.org/1999/xlink"
   xmlns="http://www.w3.org/2000/svg"
   xmlns:svg="http://www.w3.org/2000/svg">
  <sodipodi:namedview
     id="namedview1"
     pagecolor="#ffffff"
     bordercolor="#000000"
     borderopacity="0.25"
     inkscape:showpageshadow="2"
     inkscape:pageopacity="0.0"
     inkscape:pagecheckerboard="0"
     inkscape:deskcolor="#d1d1d1"
     inkscape:document-units="mm"
     inkscape:zoom="1.0592242"
     inkscape:cx="-58.061362"
     inkscape:cy="109.04207"
     inkscape:window-width="2560"
     inkscape:window-height="1369"
     inkscape:window-x="-8"
     inkscape:window-y="-8"
     inkscape:window-maximized="1"
     inkscape:current-layer="layer1" />
  <defs
     id="defs1">
    <linearGradient
       id="linearGradient1013"
       inkscape:collect="always">
      <stop
         style="stop-color:#d9a6f5;stop-opacity:1"
         offset="0"
         id="stop1011" />
      <stop
         style="stop-color:#c8d3e8;stop-opacity:1;"
         offset="0.51392436"
         id="stop1012" />
      <stop
         style="stop-color:#d2dbf3;stop-opacity:1"
         offset="1"
         id="stop1013" />
    </linearGradient>
    <linearGradient
       inkscape:collect="always"
       xlink:href="#linearGradient1013"
       id="linearGradient1327"
       gradientUnits="userSpaceOnUse"
       x1="-9032.8506"
       y1="2838.9509"
       x2="-8952.6006"
       y2="2838.9509" />
    <linearGradient
       inkscape:collect="always"
       xlink:href="#linearGradient1013"
       id="linearGradient1"
       gradientUnits="userSpaceOnUse"
       x1="-9032.8506"
       y1="2838.9509"
       x2="-8952.6006"
       y2="2838.9509" />
    <linearGradient
       inkscape:collect="always"
       xlink:href="#linearGradient1013"
       id="linearGradient2"
       gradientUnits="userSpaceOnUse"
       x1="-9032.8506"
       y1="2838.9509"
       x2="-8952.6006"
       y2="2838.9509" />
  </defs>
  <g
     inkscape:label="Layer 1"
     inkscape:groupmode="layer"
     id="layer1"
     transform="translate(-200.8187,-209.02086)">
    <g
       id="g1325"
       transform="matrix(0.87503043,0,0,0.87503043,8612.9078,-2257.9697)">
      <g
         id="g1323"
         transform="matrix(1.594054,0,0,1.594054,4794.5056,-1698.4041)"
         style="fill:url(#linearGradient1327)">
        <path
           d="m -9032.8508,2842.7275 v -7.553 h 3.5284 q 1.7372,0 2.6436,0.7661 0.9063,0.7661 0.9063,2.0825 0,0.874 -0.4208,1.5106 -0.4208,0.6258 -1.1977,0.9603 -0.7661,0.3345 -1.8235,0.3345 h -2.2228 l 1.133,-1.0467 v 2.9457 z m 4.5211,0 -1.8559,-2.7514 h 2.6975 l 1.8775,2.7514 z m -1.9746,-2.6651 -1.133,-1.1546 h 2.0609 q 0.5287,0 0.7769,-0.2373 0.259,-0.2374 0.259,-0.6474 0,-0.4101 -0.259,-0.6475 -0.2482,-0.2373 -0.7769,-0.2373 h -2.0609 l 1.133,-1.1546 z m 5.0558,2.6651 3.3018,-7.553 h 2.5033 l 3.3018,7.553 h -2.6328 l -2.4386,-6.3445 h 0.9927 l -2.4386,6.3445 z m 1.9638,-1.3164 0.6474,-1.8343 h 3.4744 l 0.6474,1.8343 z m 7.9368,1.3164 v -7.553 h 2.0933 l 3.8412,4.5966 h -0.9711 v -4.5966 h 2.4818 v 7.553 h -2.0933 l -3.8413,-4.5965 h 0.9711 v 4.5965 z m 11.3357,-1.6185 -0.1403,-2.7946 2.8486,-3.1399 h 2.773 l -3.1938,3.5175 -1.4135,1.4459 z m -2.2768,1.6185 v -7.553 h 2.5034 v 7.553 z m 4.9635,0 -2.2228,-2.9349 1.6509,-1.748 3.5176,4.6829 z m 3.6747,0 v -7.553 h 2.0933 l 3.0212,4.931 h -1.1006 l 2.9349,-4.931 h 2.0933 l 0.022,7.553 h -2.3199 l -0.022,-4.057 h 0.3669 l -2.007,3.3773 h -1.1222 l -2.0932,-3.3773 h 0.4532 v 4.057 z m 10.6775,0 v -7.553 h 6.1395 v 1.9206 h -3.6362 v 3.7118 h 3.7765 v 1.9206 z m 2.3306,-2.9133 v -1.8343 h 3.3665 v 1.8343 z"
           id="text1322"
           style="font-weight:900;font-size:10.7901px;font-family:Montserrat;-inkscape-font-specification:'Montserrat Heavy';letter-spacing:0.383711px;fill:url(#linearGradient1);stroke-width:0.127904"
           aria-label="RANKME" />
        <path
           d="m -8977.6626,2842.8354 q -0.6043,0 -1.0143,-0.3884 -0.41,-0.3992 -0.41,-1.0143 0,-0.6258 0.41,-1.0035 0.41,-0.3776 1.0143,-0.3776 0.6042,0 1.0142,0.3776 0.4101,0.3777 0.4101,1.0035 0,0.6151 -0.4101,1.0143 -0.41,0.3884 -1.0142,0.3884 z m 2.6388,-0.1079 v -7.553 h 2.5465 v 5.5785 h 3.4096 v 1.9745 z m 10.9041,0.1727 q -0.928,0 -1.7157,-0.2914 -0.7768,-0.2913 -1.3487,-0.82 -0.5719,-0.5395 -0.8956,-1.2624 -0.3129,-0.723 -0.3129,-1.5754 0,-0.8632 0.3129,-1.5754 0.3237,-0.7229 0.8956,-1.2516 0.5719,-0.5395 1.3487,-0.8308 0.7877,-0.2914 1.7049,-0.2914 0.9279,0 1.7048,0.2914 0.7769,0.2913 1.3488,0.8308 0.5719,0.5287 0.8848,1.2516 0.3237,0.7122 0.3237,1.5754 0,0.8524 -0.3237,1.5754 -0.3129,0.7229 -0.8848,1.2624 -0.5719,0.5287 -1.3488,0.82 -0.7769,0.2914 -1.694,0.2914 z m -0.011,-2.0609 q 0.3561,0 0.6582,-0.1295 0.3129,-0.1295 0.5395,-0.3669 0.2374,-0.2481 0.3668,-0.5934 0.1295,-0.3561 0.1295,-0.7985 0,-0.4424 -0.1295,-0.7877 -0.1294,-0.356 -0.3668,-0.5934 -0.2266,-0.2482 -0.5395,-0.3777 -0.3021,-0.1295 -0.6582,-0.1295 -0.3561,0 -0.669,0.1295 -0.3021,0.1295 -0.5395,0.3777 -0.2266,0.2374 -0.3561,0.5934 -0.1295,0.3453 -0.1295,0.7877 0,0.4424 0.1295,0.7985 0.1295,0.3453 0.3561,0.5934 0.2374,0.2374 0.5395,0.3669 0.3129,0.1295 0.669,0.1295 z m 5.5737,1.8882 v -7.553 h 2.5465 v 5.5785 h 3.4097 v 1.9745 z"
           id="text1323"
           style="font-weight:900;font-size:10.7901px;font-family:Montserrat;-inkscape-font-specification:'Montserrat Heavy';letter-spacing:0.383711px;fill:url(#linearGradient2);stroke-width:0.127904"
           aria-label=".LOL" />
      </g>
      <path
         d="m -9601.5936,2840.6567 q -0.593,0 -1.1014,-0.1836 -0.5012,-0.1906 -0.8754,-0.5366 -0.3671,-0.3459 -0.5719,-0.8189 -0.2047,-0.4731 -0.2047,-1.0449 0,-0.5719 0.2047,-1.0449 0.2048,-0.473 0.5719,-0.819 0.3742,-0.3459 0.8754,-0.5295 0.5084,-0.1906 1.1014,-0.1906 0.7272,0 1.2849,0.2542 0.5648,0.2541 0.932,0.7342 l -1.052,0.939 q -0.2188,-0.2753 -0.4871,-0.4236 -0.2612,-0.1553 -0.5931,-0.1553 -0.2612,0 -0.473,0.085 -0.2118,0.085 -0.3671,0.2471 -0.1483,0.1624 -0.233,0.3954 -0.085,0.2259 -0.085,0.5083 0,0.2824 0.085,0.5154 0.085,0.2259 0.233,0.3883 0.1553,0.1623 0.3671,0.2471 0.2118,0.085 0.473,0.085 0.3319,0 0.5931,-0.1483 0.2683,-0.1553 0.4871,-0.4306 l 1.052,0.939 q -0.3672,0.473 -0.932,0.7342 -0.5577,0.2542 -1.2849,0.2542 z m 2.8986,-0.113 v -4.942 h 2.3086 q 1.1367,0 1.7297,0.5012 0.5931,0.5013 0.5931,1.3626 0,0.5719 -0.2754,0.9884 -0.2753,0.4095 -0.7836,0.6284 -0.5013,0.2188 -1.1932,0.2188 h -1.4543 l 0.7413,-0.6848 v 1.9274 z m 2.9582,0 -1.2144,-1.8003 h 1.765 l 1.2285,1.8003 z m -1.292,-1.7438 -0.7413,-0.7555 h 1.3484 q 0.346,0 0.5084,-0.1553 0.1694,-0.1553 0.1694,-0.4236 0,-0.2683 -0.1694,-0.4236 -0.1624,-0.1553 -0.5084,-0.1553 h -1.3484 l 0.7413,-0.7554 z m 3.8446,1.7438 v -4.942 h 4.0172 v 1.2566 h -2.3793 v 2.4287 h 2.4711 v 1.2567 z m 1.525,-1.9062 v -1.2002 h 2.2027 v 1.2002 z m 2.9409,1.9062 2.1604,-4.942 h 1.6379 l 2.1604,4.942 h -1.7226 l -1.5956,-4.1513 h 0.6495 l -1.5956,4.1513 z m 1.285,-0.8613 0.4236,-1.2002 h 2.2733 l 0.4236,1.2002 z m 6.0191,0.8613 v -3.65 h -1.4473 v -1.292 h 4.5608 v 1.292 h -1.4473 v 3.65 z m 3.7952,0 v -4.942 h 4.0172 v 1.2566 h -2.3793 v 2.4287 h 2.4711 v 1.2567 z m 1.525,-1.9062 v -1.2002 h 2.2027 v 1.2002 z m 6.9197,1.9062 v -3.65 h -1.4473 v -1.292 h 4.5608 v 1.292 h -1.4473 v 3.65 z m 3.7952,0 v -4.942 h 1.6662 v 4.942 z m 2.7221,0 v -4.942 h 4.0172 v 1.2566 h -2.3793 v 2.4287 h 2.471 v 1.2567 z m 1.525,-1.9062 v -1.2002 h 2.2027 v 1.2002 z m 3.4775,1.9062 v -4.942 h 2.3086 q 1.1367,0 1.7297,0.5012 0.5931,0.5013 0.5931,1.3626 0,0.5719 -0.2754,0.9884 -0.2753,0.4095 -0.7836,0.6284 -0.5013,0.2188 -1.1932,0.2188 h -1.4544 l 0.7414,-0.6848 v 1.9274 z m 2.9581,0 -1.2143,-1.8003 h 1.765 l 1.2285,1.8003 z m -1.2919,-1.7438 -0.7414,-0.7555 h 1.3485 q 0.346,0 0.5083,-0.1553 0.1695,-0.1553 0.1695,-0.4236 0,-0.2683 -0.1695,-0.4236 -0.1623,-0.1553 -0.5083,-0.1553 h -1.3485 l 0.7414,-0.7554 z m 6.2137,1.7438 v -4.942 h 1.6661 v 3.65 h 2.231 v 1.292 z m 4.6071,0 v -4.942 h 1.6662 v 4.942 z m 4.5648,0.113 q -0.6213,0 -1.2003,-0.1412 -0.5789,-0.1412 -0.9531,-0.3672 l 0.5366,-1.2143 q 0.353,0.2047 0.7837,0.3318 0.4377,0.1201 0.8472,0.1201 0.24,0 0.3742,-0.028 0.1412,-0.035 0.2047,-0.092 0.064,-0.064 0.064,-0.1482 0,-0.1342 -0.1482,-0.2118 -0.1483,-0.078 -0.3954,-0.1271 -0.24,-0.056 -0.5295,-0.113 -0.2895,-0.064 -0.586,-0.1624 -0.2894,-0.099 -0.5365,-0.2612 -0.2401,-0.1624 -0.3883,-0.4236 -0.1483,-0.2683 -0.1483,-0.6636 0,-0.4589 0.2542,-0.8331 0.2612,-0.3813 0.7695,-0.6072 0.5154,-0.2259 1.2779,-0.2259 0.5012,0 0.9884,0.1059 0.4871,0.1059 0.8754,0.3248 l -0.5012,1.2072 q -0.3672,-0.1835 -0.7131,-0.2753 -0.3389,-0.092 -0.6636,-0.092 -0.2401,0 -0.3813,0.042 -0.1412,0.042 -0.2047,0.1129 -0.057,0.071 -0.057,0.1554 0,0.127 0.1483,0.2047 0.1482,0.071 0.3883,0.12 0.2471,0.049 0.5365,0.1059 0.2965,0.057 0.586,0.1553 0.2895,0.099 0.5295,0.2613 0.2471,0.1623 0.3954,0.4236 0.1482,0.2612 0.1482,0.6495 0,0.4518 -0.2612,0.8331 -0.2541,0.3742 -0.7625,0.6071 -0.5083,0.226 -1.2778,0.226 z m 4.0493,-0.113 v -3.65 h -1.4473 v -1.292 h 4.5608 v 1.292 h -1.4473 v 3.65 z m 5.6379,0.113 q -0.6213,0 -1.2002,-0.1412 -0.5789,-0.1412 -0.9531,-0.3672 l 0.5366,-1.2143 q 0.353,0.2047 0.7836,0.3318 0.4378,0.1201 0.8472,0.1201 0.2401,0 0.3742,-0.028 0.1412,-0.035 0.2048,-0.092 0.063,-0.064 0.063,-0.1482 0,-0.1342 -0.1483,-0.2118 -0.1482,-0.078 -0.3953,-0.1271 -0.2401,-0.056 -0.5295,-0.113 -0.2895,-0.064 -0.586,-0.1624 -0.2895,-0.099 -0.5366,-0.2612 -0.24,-0.1624 -0.3883,-0.4236 -0.1482,-0.2683 -0.1482,-0.6636 0,-0.4589 0.2541,-0.8331 0.2612,-0.3813 0.7696,-0.6072 0.5154,-0.2259 1.2778,-0.2259 0.5013,0 0.9884,0.1059 0.4872,0.1059 0.8755,0.3248 l -0.5013,1.2072 q -0.3671,-0.1835 -0.713,-0.2753 -0.3389,-0.092 -0.6637,-0.092 -0.24,0 -0.3812,0.042 -0.1412,0.042 -0.2048,0.1129 -0.056,0.071 -0.056,0.1554 0,0.127 0.1482,0.2047 0.1483,0.071 0.3883,0.12 0.2471,0.049 0.5366,0.1059 0.2965,0.057 0.586,0.1553 0.2894,0.099 0.5295,0.2613 0.2471,0.1623 0.3953,0.4236 0.1483,0.2612 0.1483,0.6495 0,0.4518 -0.2612,0.8331 -0.2542,0.3742 -0.7625,0.6071 -0.5083,0.226 -1.2779,0.226 z m 5.4159,-0.113 v -4.942 h 1.6662 v 4.942 z m 2.7221,0 v -4.942 h 1.3697 l 2.5134,3.0075 h -0.6355 v -3.0075 h 1.6239 v 4.942 h -1.3697 l -2.5134,-3.0076 h 0.6354 v 3.0076 z m 10.1391,0.113 q -0.6213,0 -1.2002,-0.1412 -0.5789,-0.1412 -0.9531,-0.3672 l 0.5366,-1.2143 q 0.353,0.2047 0.7836,0.3318 0.4378,0.1201 0.8473,0.1201 0.24,0 0.3741,-0.028 0.1412,-0.035 0.2048,-0.092 0.064,-0.064 0.064,-0.1482 0,-0.1342 -0.1482,-0.2118 -0.1483,-0.078 -0.3954,-0.1271 -0.2401,-0.056 -0.5295,-0.113 -0.2895,-0.064 -0.586,-0.1624 -0.2895,-0.099 -0.5366,-0.2612 -0.24,-0.1624 -0.3883,-0.4236 -0.1482,-0.2683 -0.1482,-0.6636 0,-0.4589 0.2541,-0.8331 0.2613,-0.3813 0.7696,-0.6072 0.5154,-0.2259 1.2779,-0.2259 0.5012,0 0.9884,0.1059 0.4871,0.1059 0.8754,0.3248 l -0.5013,1.2072 q -0.3671,-0.1835 -0.713,-0.2753 -0.3389,-0.092 -0.6637,-0.092 -0.24,0 -0.3812,0.042 -0.1412,0.042 -0.2048,0.1129 -0.056,0.071 -0.056,0.1554 0,0.127 0.1482,0.2047 0.1483,0.071 0.3883,0.12 0.2471,0.049 0.5366,0.1059 0.2965,0.057 0.586,0.1553 0.2894,0.099 0.5295,0.2613 0.2471,0.1623 0.3953,0.4236 0.1483,0.2612 0.1483,0.6495 0,0.4518 -0.2612,0.8331 -0.2542,0.3742 -0.7625,0.6071 -0.5083,0.226 -1.2779,0.226 z m 3.0469,-0.113 v -4.942 h 4.0172 v 1.2566 h -2.3793 v 2.4287 h 2.471 v 1.2567 z m 1.525,-1.9062 v -1.2002 h 2.2027 v 1.2002 z m 6.0332,2.0192 q -0.593,0 -1.1014,-0.1836 -0.5012,-0.1906 -0.8754,-0.5366 -0.3671,-0.3459 -0.5719,-0.8189 -0.2047,-0.4731 -0.2047,-1.0449 0,-0.5719 0.2047,-1.0449 0.2048,-0.473 0.5719,-0.819 0.3742,-0.3459 0.8754,-0.5295 0.5084,-0.1906 1.1014,-0.1906 0.7272,0 1.2849,0.2542 0.5648,0.2541 0.932,0.7342 l -1.052,0.939 q -0.2188,-0.2753 -0.4871,-0.4236 -0.2612,-0.1553 -0.5931,-0.1553 -0.2612,0 -0.473,0.085 -0.2118,0.085 -0.3671,0.2471 -0.1483,0.1624 -0.233,0.3954 -0.085,0.2259 -0.085,0.5083 0,0.2824 0.085,0.5154 0.085,0.2259 0.233,0.3883 0.1553,0.1623 0.3671,0.2471 0.2118,0.085 0.473,0.085 0.3319,0 0.5931,-0.1483 0.2683,-0.1553 0.4871,-0.4306 l 1.052,0.939 q -0.3672,0.473 -0.932,0.7342 -0.5577,0.2542 -1.2849,0.2542 z m 5.3202,0 q -0.6072,0 -1.1226,-0.1907 -0.5083,-0.1906 -0.8825,-0.5365 -0.3741,-0.353 -0.5859,-0.8261 -0.2048,-0.473 -0.2048,-1.0307 0,-0.5648 0.2048,-1.0308 0.2118,-0.473 0.5859,-0.819 0.3742,-0.353 0.8825,-0.5436 0.5154,-0.1906 1.1155,-0.1906 0.6072,0 1.1155,0.1906 0.5083,0.1906 0.8825,0.5436 0.3742,0.346 0.579,0.819 0.2118,0.466 0.2118,1.0308 0,0.5577 -0.2118,1.0307 -0.2048,0.4731 -0.579,0.8261 -0.3742,0.3459 -0.8825,0.5365 -0.5083,0.1907 -1.1084,0.1907 z m -0.01,-1.3485 q 0.233,0 0.4307,-0.085 0.2047,-0.085 0.353,-0.2401 0.1553,-0.1624 0.24,-0.3883 0.085,-0.233 0.085,-0.5224 0,-0.2895 -0.085,-0.5154 -0.085,-0.233 -0.24,-0.3883 -0.1483,-0.1624 -0.353,-0.2471 -0.1977,-0.085 -0.4307,-0.085 -0.2329,0 -0.4377,0.085 -0.1977,0.085 -0.353,0.2471 -0.1483,0.1553 -0.233,0.3883 -0.085,0.2259 -0.085,0.5154 0,0.2894 0.085,0.5224 0.085,0.2259 0.233,0.3883 0.1553,0.1553 0.353,0.2401 0.2048,0.085 0.4377,0.085 z m 3.647,1.2355 v -4.942 h 1.3696 l 2.5134,3.0075 h -0.6354 v -3.0075 h 1.6238 v 4.942 h -1.3696 l -2.5134,-3.0076 h 0.6354 v 3.0076 z m 5.9273,0 v -4.942 h 2.4358 q 0.826,0 1.4543,0.3035 0.6284,0.2966 0.9814,0.8472 0.353,0.5507 0.353,1.3203 0,0.7625 -0.353,1.3202 -0.353,0.5507 -0.9814,0.8543 -0.6283,0.2965 -1.4543,0.2965 z m 1.6662,-1.299 h 0.699 q 0.353,0 0.6142,-0.1342 0.2683,-0.1341 0.4165,-0.3954 0.1483,-0.2682 0.1483,-0.6424 0,-0.3813 -0.1483,-0.6425 -0.1482,-0.2612 -0.4165,-0.3953 -0.2612,-0.1342 -0.6142,-0.1342 h -0.699 z m 6.2592,1.412 q -0.6213,0 -1.2002,-0.1412 -0.5789,-0.1412 -0.9531,-0.3672 l 0.5365,-1.2143 q 0.353,0.2047 0.7837,0.3318 0.4377,0.1201 0.8472,0.1201 0.2401,0 0.3742,-0.028 0.1412,-0.035 0.2047,-0.092 0.064,-0.064 0.064,-0.1482 0,-0.1342 -0.1483,-0.2118 -0.1482,-0.078 -0.3953,-0.1271 -0.2401,-0.056 -0.5296,-0.113 -0.2894,-0.064 -0.5859,-0.1624 -0.2895,-0.099 -0.5366,-0.2612 -0.24,-0.1624 -0.3883,-0.4236 -0.1483,-0.2683 -0.1483,-0.6636 0,-0.4589 0.2542,-0.8331 0.2612,-0.3813 0.7695,-0.6072 0.5154,-0.2259 1.2779,-0.2259 0.5013,0 0.9884,0.1059 0.4872,0.1059 0.8755,0.3248 l -0.5013,1.2072 q -0.3671,-0.1835 -0.7131,-0.2753 -0.3388,-0.092 -0.6636,-0.092 -0.24,0 -0.3812,0.042 -0.1413,0.042 -0.2048,0.1129 -0.057,0.071 -0.057,0.1554 0,0.127 0.1483,0.2047 0.1483,0.071 0.3883,0.12 0.2471,0.049 0.5366,0.1059 0.2965,0.057 0.5859,0.1553 0.2895,0.099 0.5295,0.2613 0.2471,0.1623 0.3954,0.4236 0.1483,0.2612 0.1483,0.6495 0,0.4518 -0.2613,0.8331 -0.2541,0.3742 -0.7624,0.6071 -0.5084,0.226 -1.2779,0.226 z"
         id="text1324"
         style="font-weight:900;font-size:7.06006px;font-family:Montserrat;-inkscape-font-specification:'Montserrat Heavy';letter-spacing:0.251064px;fill:#f9f9f9;stroke-width:0.0836889"
         aria-label="CREATE TIER LISTS IN SECONDS" />
    </g>
  </g>
</svg>
