<svg xmlns="http://www.w3.org/2000/svg" xmlns:xlink="http://www.w3.org/1999/xlink" width="195.4" height="106.09" viewBox="0 0 51.7 28.07"><defs><linearGradient xlink:href="#a" id="d" x1="-8909.05" x2="-8857.35" y1="2926.08" y2="2926.08" gradientTransform="translate(-52.62 -99.4)" gradientUnits="userSpaceOnUse"/><linearGradient id="a"><stop offset="0" style="stop-color:#d9a6f5;stop-opacity:1"/><stop offset=".51" style="stop-color:#c8d3e8;stop-opacity:1"/><stop offset="1" style="stop-color:#d1daf1;stop-opacity:1"/></linearGradient><linearGradient xlink:href="#b" id="e" x1="-8913.85" x2="-8925.09" y1="2813.33" y2="2821.33" gradientUnits="userSpaceOnUse"/><linearGradient id="b"><stop offset="0" style="stop-color:#c495f4;stop-opacity:1"/><stop offset="1" style="stop-color:#ced8ee;stop-opacity:1"/></linearGradient><linearGradient xlink:href="#c" id="f" x1="-8937.37" x2="-8914.02" y1="2836.9" y2="2836.17" gradientUnits="userSpaceOnUse"/><linearGradient id="c"><stop offset="0" style="stop-color:#b382f4;stop-opacity:1"/><stop offset="1" style="stop-color:#d7aaf4;stop-opacity:1"/></linearGradient></defs><path d="M-8952.94 2840.42c.08-.26.17-.7.16-.75 0-.03-.1.13-.21.35s-.2.38-.22.35l.23-.84.25-.84-.18.26c-.1.16-.18.3-.2.3-.01 0 .01-.15.05-.32.09-.4.09-.43-.01-.34q-.07.05-.08.03c0-.06.58-1.42 1.08-2.57l.47-1.06c.01-.03-.23.01-.55.08-.92.2-1.24.15-.4-.06.45-.11.93-.29.93-.34 0-.03-.07-.03-.63.04-.34.05-.56.05-.56.01a2 2 0 0 1 .46-.13c.26-.06.47-.13.47-.15q0-.02-.07-.01l-.27.04-.2.02.1-.08q.1-.07.1-.1c0-.06-.4-.05-.65.01q-.45.1-.4 0c.03-.09-.14-.07-1.07.12-.47.09-.88.16-.9.15-.02 0 .19-.09.47-.18.28-.1.52-.18.54-.2.04-.04-.62.02-1.16.11-.22.04-.04-.05.38-.18.38-.13.88-.28 3.05-.92.52-.15.75-.23.8-.3l.08-.08.08.08.07.08.15-.1q.15-.08.29-.35c.2-.41.43-1.05.42-1.2-.01-.12-.02-.14-.12-.15-.15-.01-2.41.53-4.26 1.02l-1.52.4q-.03 0-.02-.05.03-.04-.04-.01l-.22.04c-.13.02-.12.01.13-.1l.39-.14q2.73-.82 2.14-.7c-.37.07-.74.13-.82.13q-.13.02.11-.12c.26-.15.2-.16-.34-.08-.49.07-.73.12-1.37.3l-.52.13q-.05-.01.09-.13c.16-.15.14-.15-.18-.1-.83.16.7-.32 4.25-1.33 1.04-.3 1.5-.43 1.48-.45-.01-.01-.4.04-.87.11l-.92.14q-.24 0 .55-.24a620 620 0 0 1 19.42-5.21c.52-.1-.96.38-3.03.97-.2.06-.23.08-.16.15.06.06.03.07-.41.2-.63.2-.84.34-.47.34a11 11 0 0 0 1.91-.43c.38-.11.72-.2.78-.2q.11-.02.06.08l-.03.09-.64.2c-.88.25-1.06.32-1.12.4q-.14.15.21.13.24 0 .22.04c-.02.05.1.02-1.9.59-.86.24-1.73.5-1.94.58-.41.15-.42.15.4.04.48-.07.65-.07.6-.03q-.06.07-6.63 1.75c-1.34.35-2.5.66-2.58.7a1 1 0 0 0-.24.16l-.1.1.09.02q.09.02.06.09l-.05.17a3.57 3.57 0 0 0-.53 1.16c0 .08.13.13.3.13.1 0 .42-.06.73-.13l1.28-.3c.95-.21.97-.22.97-.18 0 .02-.11.09-.24.15-.26.13-.37.26-.27.3h.15c.21-.06.07.15-.15.22-.14.04-.2.22-.23.67-.01.25-.03.3-.1.34q-.16.12-.17.36 0 .11-.08.16-.2.13-1.26.33a8 8 0 0 0-2.32.65c-.23.13-.31.32-.15.32q.06 0 .06.11c0 .13-.17.55-.27.66a11.32 11.32 0 0 1-.96 2.55c-.08.15-.18.36-.2.46q-.06.2-.13.2-.15.02-.08-.5c.03-.16.04-.31.03-.32s-.16.26-.47 1c-.13.29-.25.53-.26.53a3 3 0 0 1 0-.5v-.48c-.03 0-.2.38-.62 1.28-.13.3-.18.37-.24.37q-.09 0-.06-.07zm6.78-8.1c.1-.2.04-.26-.07-.08l-.07.17q.01.14.14-.1m7.4 6.82-.03-.26a1 1 0 0 0-.1-.45c-.1-.2-.1-.22-.06-.38q.05-.15.03-.18c-.03-.03-.15.32-.26.73-.06.24-.13.44-.16.45-.07.02-.1-.31-.05-.53.04-.21.07-.74.04-.74-.01 0-.09.18-.17.4l-.15.4-.01-.36c-.02-.33-.03-.37-.07-.31q-.11.12-.12-.01 0-.07-.04-.1-.09-.05.06-.4c.12-.29.16-.55.08-.58-.03 0-.2.02-.36.07-.46.12-1.21.12-1.58 0q-.95-.3-1.01-1.53a8 8 0 0 1 1.04-3.8 5.6 5.6 0 0 1 1.69-1.92c.6-.37 1.86-.84 3.11-1.19.68-.18.9-.22.87-.14q-.03.05-.2.14l-.18.1h.18c.1.02.27 0 .37-.03.16-.04.2-.07.24-.17.08-.17.19-.16.19.01q0 .14-.11.26a.4.4 0 0 0-.11.29q0 .16-.08.26-.14.16-.01.24c.06.04.05.06-.03.17-.05.06-.17.18-.27.26s-.24.2-.3.27l-.11.12.16-.03q.15-.01.14.02c-.05.07-.29.14-1.14.33-.48.11-1 .25-1.16.31a3.7 3.7 0 0 0-2.01 2.31c-.16.45-.3 1.02-.3 1.29 0 .22.01.26.09.35.12.13.23.12.78-.04.64-.18.8-.26.87-.41q.06-.13.02-.15-.05-.04-.03-.2.02-.15-.02-.16l-.42.12-.42.1c-.1 0-.01-.15.2-.36s.24-.23.16-.23-.43-.2-.43-.25q.02-.02.2-.1.19-.1.2-.16t.14-.13l.14-.07h-.3q-.3 0-.31-.04c0-.08.86-.42 1.76-.7.62-.18 2.3-.61 2.4-.61q.07-.01-.02.08-.2.22-.03.22c.13 0 .11.1-.04.15q-.23.1-.11.2.05.05.05.09c0 .06-.2.2-.5.35l-.26.14.13.03q.29.07-.04.18-.28.12-.24.25.12.16-1.22 3.9a58 58 0 0 0-.74 2.17l-.04-.03zm.12-.93q0-.05-.04-.03-.03.01-.02.05.05.09.05-.02zm-7.74-.25c0-.05.57-2.01.76-2.58.08-.26.18-.5.21-.56a25.64 25.64 0 0 1 .95-3.1c.25-.62.3-.7.4-.68.07.01.11-.04.27-.35.21-.42.26-.49.31-.4q.04.06.04.19 0 .14.03.22l.06.17c.03.06.03.06.08-.03q.06-.11.13-.09.1.05.2-.3.01-.07.1-.04.12.03.2-.31c.04-.19.17-.49.21-.49s.03.07-.03.34q-.04.12.03.04.06-.06.09-.15c.03-.14.15-.34.2-.34.08 0 .02.58-.15 1.3-.2.92-.28 1.14-.65 1.89-.17.35-.31.65-.3.68q.01.01.15-.18.14-.18.17-.2c.04 0 0 .15-.48 1.55a24 24 0 0 1-1 2.62l-.14.27-.01-.28c-.02-.16-.04-.29-.07-.3q-.09 0-.27.4c-.07.16-.46.6-.53.6a1 1 0 0 1 0-.27q.07-.64-.17-.11l-.15.3v-.26q0-.26-.05-.25-.13 0-.36.45-.22.41-.22.25zm9.74-2.18c0-.4.26-1.32.54-1.96.3-.67.51-1.44.9-3.23.27-1.17.67-2.4.8-2.4.04 0 .04.06-.02.27-.1.32-.01.18.16-.24l.2-.45c.1-.08.42-.22.5-.22q.09 0 .17.06t.24.03l.16-.05.01-.1q.02-.19.14-.1.08.06.13 0l.18-.09c.11-.04.14-.03.24.05.11.1.12.1.1.27-.04.25-.18.68-.48 1.45-.34.9-.44 1.17-.4 1.2a8 8 0 0 0 1.32-.37c.02-.01-.1-.03-.27-.03q-.28 0-.3-.03 0-.04.08-.04c.05 0 .17-.03.28-.06q.2-.05.24-.16c.03-.06.16-.48.28-.94a8 8 0 0 1 .46-1.42q.05-.05.15-.04t.15-.03q.04-.05.06-.02.04.03.21-.05c.1-.05.22-.09.26-.08q.07.02.16-.04t.12-.03c.01.01.09-.01.15-.06.16-.09.17-.09.2.01q.01.13.08.02c.07-.1.24-.21.32-.21.11 0 .08.2-.14.9-.22.69-.55 1.94-.53 1.97.01.01.14-.01.29-.04.31-.07.3-.07.3-.02 0 .01-.13.12-.3.23-.35.25-.45.33-.45.4q0 .07-.05.12-.07.05-.04.19c.02.11.01.15-.09.25-.2.21-.39.73-.93 2.53a12 12 0 0 1-.6 1.83q-.03-.01-.02-.18l.02-.18-.07.15-.07.2q0 .03-.05.07-.04.03-.01-.24c.02-.25.02-.27-.04-.27q-.18 0-.26-.09c-.07-.05-.1-.04-.5.15-.35.18-.42.2-.48.17l-.13-.04q-.11 0 .01-.52c.07-.24.07-.27.01-.33-.05-.06-.05-.06.02-.13.08-.06.42-.96.51-1.32q.06-.14-.1-.08c-.06.01-.24.07-.4.14-.15.06-.32.1-.39.1-.16 0-.21.07-.38.58-.09.24-.18.47-.21.5a1 1 0 0 0-.1.27c-.1.55-.48 1.51-.68 1.72q-.07.07-.06 0l.04-.17q.06-.23-.08-.1a1 1 0 0 1-.21.07c-.12.02-.16.01-.23-.06l-.08-.08-.25.24c-.3.29-.37.32-.45.2l-.07-.07-.1.08q-.19.16-.17-.05zm7.94-1.54c.02-.4.02-.4-.1-.66l-.15-.26-.07.16-.12.37c-.08.2-.08.2-.1.09l-.02-.11-.1.16a1 1 0 0 1-.2.2.2.2 0 0 0-.1.1q-.03.08-.07.08c-.04 0-.02-.3.03-.43s-.09.01-.2.2q-.08.15-.11.13c-.01-.03.05-.24.13-.49.08-.24.18-.55.21-.7.07-.24.07-.25 0-.32q-.06-.07-.05-.21c.05-.38 1.13-3.83 1.25-3.96q.06-.05.15-.09.15-.02.02-.05c-.08-.03-.08-.04-.02-.29.06-.28.51-1.7.65-2.06.1-.23.1-.24.02-.24l-1.01.2c-1.25.28-1.25.28-1.25.25 0-.01.29-.13.64-.26q1.5-.56-.08-.08c-1.22.37-1.45.42-1.51.36q-.07-.05-.22-.06c-.22 0-.88.1-1.37.2l-.43.08c-.04-.04 1.3-.61 2.03-.85q.86-.3.22-.19l-.48.09c-.09.02-.22.03-.3.03-.12 0-.03-.04.45-.2.69-.22 1.12-.4 1.12-.45q-.02-.02-.26 0c-.68.06-.92.07-.92.03q.02-.05.2-.09.47-.1.48-.18.02-.05.17-.1c.1-.03.2-.08.22-.1.06-.08.02-.18-.07-.18s-.13-.07-.03-.11c.05-.02.76-.22 1.6-.43.82-.22 1.58-.44 1.7-.49q.21-.1.21-.04.02.06.08.02c.13-.07 3.77-1.03 4.94-1.3.37-.1.66-.1.7-.04q.03.04.23.02.39-.04-.09.11c-1.24.38-1.35.43-1.35.52 0 .16.35.22.93.15q.4-.03.08.1c-.23.07-.6.25-.6.28s.39 0 .45-.05q.03 0 .03.02c0 .05-.11.09-.72.27-1.48.43-2.34.74-2.92 1.06-.31.16-.38.18-.4.14q-.04-.08-.07 0-.02.07-.06.06c-.05 0-.32.15-.32.19q0 .02.05.06c.05.04.04.11-.08.61-.08.33-.12.55-.1.53.03-.03.13-.24.24-.48l.18-.43v.21c0 .17-.04.33-.2.75-.26.71-.48 1.42-1.02 3.31a144 144 0 0 1-1.54 5c-.03-.03.06-.75.13-1.09.04-.2.07-.38.06-.4 0-.03-.1.16-.2.43l-.18.49-.02-.21c-.02-.2-.02-.2-.08-.11q-.11.18-.16.54c-.04.31-.1.58-.14.58q-.04 0-.01-.4zm.18-.65q.01-.15-.01-.16-.03.02-.04.18 0 .3.05-.02m9.3.7c.04-.2.09-.6.1-.88.02-.25.02-.28-.02-.23l-.11.15q-.1.14-.05-.07c.06-.4.07-.5.03-.5q-.04 0-.08.1-.04.09-.06.08l.02-.31.03-.5c-.01-.21-.02-.21-.06-.1q-.15.42-.1-.1c0-.2.03-.41.04-.48l.02-.13-.1.1-.1.12.02-.13.04-.32.12-.75c0-.01-.06.12-.12.3l-.13.33c-.05.06-.08-.18-.04-.3q.05-.1 0-.19c-.04-.07-.03-.17.1-.65.15-.54.4-1.59.44-1.86q.05-.18-.28-.59l-.1-.16.17.05q.15.05.18.04c.01-.02-.32-.29-.55-.45-.16-.1-.2-.2-.07-.15.05.01.25.1.45.2.36.17.43.19.29.06q-.2-.18.08-.17l.15.02.07-.2c.03-.1.1-.23.12-.28.07-.1.2-.71.32-1.56.04-.3.1-.57.11-.61.03-.08-.03-.28-.15-.49-.04-.07.05-.14.37-.3.1-.06.2-.12.2-.15 0-.05-.1-.03-.97.18-.7.17-.82.19-.82.13 0-.04.24-.25.36-.32.12-.05.38-.33.45-.46q.12-.2-.26 0c-.3.15-.7.3-.73.28l.05-.14c.05-.1.05-.13.02-.2-.05-.09-.04-.11.08-.23.07-.08.24-.2.38-.29q.52-.3.66-.54c.06-.09.13-.14.32-.22q.45-.17.78-.47c.32-.3.88-.48 1.48-.48.11 0 .27-.04.37-.08.17-.07.17-.07.21 0s.09.08.43.08.4-.01.53-.09c.14-.08.14-.08.22-.01q.07.07.08.13-.01.07.07-.03c.07-.07.12-.08.37-.08.27 0 .31-.01.48-.12.18-.1.2-.11.5-.1.54.04 1.19.32 1.58.7a2 2 0 0 1 .58 1c.09.29.1.41.1.83q.02 1.17-.58 2.34a6 6 0 0 1-2.86 2.75c-.55.28-.65.35-.6.4l.43.32c1.02.76 3.13 2.45 3.11 2.48a11 11 0 0 1-1.25-.62c0 .01.28.25.62.52 1.21.97 1.68 1.35 1.7 1.39s-.03.04-.07 0a5 5 0 0 0-.76-.39c0 .02.1.14.23.27l.23.24-.26-.14-.6-.34c-.02.01.06.1.16.22q.41.43.37.46c0 .01-.28-.16-.6-.37l-.6-.4v.06q.06.12-.2-.06-.14-.1-.17-.1c-.02.01.26.32.62.68.35.36.62.66.6.66s-.25-.14-.5-.3q-.76-.52-.84-.53a29.98 29.98 0 0 1 .88.95l.14.15-.3-.18c-.16-.1-.33-.2-.37-.21-.08-.04.23.26.6.58.13.1.22.2.21.2-.02.03-.9-.5-1.41-.84-.26-.17-.46-.29-.46-.27q0 .03.03.05c.05.03.2.36.18.39a1 1 0 0 1-.33-.18l-.48-.29c-.09-.05-.37-.25-.61-.45-1.22-1-1.75-1.52-1.93-1.9l-.12-.2v.16q.05.29-.13.07a8 8 0 0 0-.87-.64l-.07.38c-.1.6-.38 1.7-.52 2.11-.07.22-.22.56-.33.77s-.23.47-.26.57q-.16.5-.12 0l.06-.73-.13.37c-.17.5-.47 1.28-.5 1.28q-.04 0-.02-.09zm3.2-7.36c.5-.13 1.19-.6 1.82-1.23.5-.51.81-.91 1.04-1.36.2-.37.27-.69.27-1.1 0-.53-.17-.77-.62-.87a5 5 0 0 0-1.38.06c-.35.08-.37.07-.2-.07l.14-.13-.15.02c-.08.01-.24.06-.36.1-.26.09-.35.2-.38.48-.09.74-.3 1.97-.6 3.28-.09.43-.16.8-.15.83.03.07.3.06.56-.01zm-9.56 6.31.19-.1c.19-.09.22-.18.05-.14q-.1 0-.13-.02t-.1-.03q-.08 0-.11-.03c-.01 0 .03-.18.1-.38q.12-.36.1-.4l-.04-.1q.01-.08-.1-.06l-.18.05q-.09.06-.04-.1.02-.12.05-.14.03-.04.02-.18l-.02-.16h-.27c-.23 0-.25-.01-.2-.05.04-.03.18-.1.33-.14q.25-.08.27-.14c.76-2.64.88-3.1.86-3.11q0-.02-.03.03l-.13.37q-.24.68-.26.56l.14-1.1c.25-1.74.24-1.65.33-1.66.12-.02.21-.18.21-.39q0-.18.07-.25.06-.07.05-.13c-.04-.11.2-.27.48-.3l.76-.16q.57-.14.71-.11c.11.01.16 0 .23-.07q.1-.08.38-.15l1.52-.4 1.37-.36q.33-.04-.17.23-.28.16-.1.17l.18.06.13.06-.15.1a.5.5 0 0 0-.2.2c-.03.07-.12.24-.21.37l-.16.28q0 .02.1.05c.16.07.08.24-.16.33l-.68.2c-.67.19-1.72.51-1.9.58-.29.13-.4.38-.4.87 0 .22 0 .29.07.35q.07.07.1.07l1-.22c.54-.13 1.02-.23 1.06-.22q.12 0-.1.14l-.18.13.24.02.24.02-.2.07c-.27.1-.3.12-.21.2.07.05.07.05-.01.12a1 1 0 0 0-.16.24c-.08.16-.08.18-.02.33q.05.14.04.17l-.28.09c-.31.08-.4.13-.16.1q.14 0 .18.02.04.09-.56.22c-.23.04-.66.14-.96.21-.52.13-.56.14-.63.25a4 4 0 0 0-.28.86c-.02.15-.02.15.07.13.3-.09.64-.17.66-.16s-.23.12-.47.2c-.19.05-.3.13-.24.17q.05.01.26-.05c.32-.1 1.08-.26 1.08-.23q-.02.04-.24.14l-.22.12.53-.14c.28-.08.59-.15.67-.15.13 0 .15.01.17.1q.02.09.13.09c.08 0 .1.02.15.15.04.15.04.17-.02.21q-.08.05-.02.12.1.15-.01.15-.07-.01-.01.13.07.32-.22.65c-.16.17-.16.18-.22.1q-.05-.06-.05-.02c0 .1-.15.2-.26.17q-.1-.03-.35.1a1 1 0 0 1-.42.1c-.1 0-.54.1-.98.21-.7.18-1.9.44-2.04.44q-.05 0-.02-.04zm4.26-2.41q0-.05-.04-.06-.04.01-.04.08t.04.05.04-.07m-3.37-4.13q.03-.14-.05-.05t0 .11q.03 0 .05-.06zm-36.26 4.22q.48-.18 0-.13-.52.05.12-.12c.18-.05.37-.1.43-.13l.1-.05-.16-.02-.17-.02.45-.14 1.27-.42-.51.06a5 5 0 0 1-1.32.07l.5-.2c.22-.1.4-.2.4-.21a4 4 0 0 0-.69-.06c-.36 0-.77-.03-.9-.04l-.24-.03.33-.07 3.95-.88c-.01-.01-.16.01-.33.02-.3.04-1.48.12-1.72.12-.2 0-.02-.06.46-.15q.88-.15.28-.15l-.3-.01.25-.06a26 26 0 0 0 5.78-1.89c.75-.37 1.04-.58 1.17-.84.08-.17.08-.18.02-.3-.13-.29-.53-.3-1.4-.08a5.4 5.4 0 0 1-2.69.26q-.7-.27-1-.9c-.14-.3-.19-.6-.16-1.06q.07-1.44 1.42-2.8a8 8 0 0 1 3.71-2.02c.62-.17 1.41-.43 1.39-.45a4 4 0 0 0-.57.1l-.64.13q-.08.02-.07-.02a18 18 0 0 1 2.35-.73c1.66-.43 2.07-.54 3.69-.98 1.7-.46 2.31-.62 2.31-.58l-.2.2-.19.18.2-.02c.12-.01.46-.1.77-.17q1.4-.37-.12.2-.89.35-.87.46 0 .04.07.1c.07.07.1.07.44 0 .2-.04.37-.07.38-.06.04.03-.1.1-.62.31-1 .4-1.26.55-.67.37.14-.04.3-.07.34-.06q.12 0-.05.1c-.07.04-.3.14-.5.21-1.42.53-2.25.88-2.25.96 0 .04 0 .04.3-.02l.32-.06c.15 0 .1.07-.11.13-.27.1-.93.36-.97.4q-.1.07.31-.02.77-.16.08.15c-.83.35-2.54.94-4.28 1.48-1.9.58-2.76 1.02-3.01 1.5-.1.2-.1.28.02.4.1.09.11.1.34.07.13-.01.77-.16 1.42-.33a6 6 0 0 1 1.68-.32c.38-.01.56 0 .76.04q1.57.4 1.08 2.48c-.46 1.88-2.05 3.5-4.56 4.65a16 16 0 0 1-5.4 1.47 19 19 0 0 1 1.74-.7c-.03 0-.64.11-1.36.26-1.34.26-2.6.49-2.73.48q-.05 0 .13-.08zm11.75-2.46c0-.04.18-.48 1-2.49l1.6-4q0-.1-.37.03l-.53.14c-.26.05-.34.06-.4.02-.1-.07-.5-.06-.85.03-.32.08-.38.08-.3 0 .06-.03.95-.36 1.4-.5.13-.04.23-.08.2-.09a4 4 0 0 0-.64.16q-1.2.34-.1-.1c.3-.12.48-.22.29-.17-.3.08-.52.11-.55.08q-.01-.03.02-.04c.1-.04.39-.25.4-.3.05-.12-.04-.13-.44-.03-.22.05-.43.09-.46.08-.08-.01 1.34-.76 1.76-.92.16-.06.36-.13.43-.14s.27-.09.42-.17c.28-.14.81-.3 1.17-.35.12-.02.48-.14.84-.3 1.35-.55 2.48-.91 4.85-1.56q2.53-.7 2.56-.65c.03.03-.02.05-.37.19a7 7 0 0 0-1.03.45c.01.01.26-.04.55-.12.54-.14.65-.15.62-.1a8 8 0 0 1-1.2.48c-.66.24-.8.31-.8.42q-.01.05-.11.09c-.21.07-.69.32-.74.38-.06.07-.03.08.2.03q.23-.05.05.06-.21.13.27-.01c.32-.1.49-.12.42-.06-.02.02-.3.16-.63.3q-.87.4-.57.33c.1-.02.66-.12.92-.15.2-.03.2.04-.01.12-.73.26-2.87.96-3.63 1.18-1.17.35-1.32.4-1.56.6l-.19.14.08.1c.12.11.1.24-.16.8-.36.81-.85 2.13-1.16 3.13-.4 1.32-.62 1.85-.83 2.05-.09.09-.15.11-.4.14-.3.03-.47.1-.66.25q-.1.1-.2.07c-.1-.02-.13 0-.27.16l-.19.2-.05-.1c-.03-.14-.2-.12-.4.04q-.25.2-.25.1zm3.42-.95c-.05-.03-.04-.04.21-.13.07-.02.3-.52.74-1.67.34-.85.94-2.43.94-2.46l-.17.05q-.28.09-.16-.04.07-.07-.07-.06l-.21.04q-.24.08 0-.15c.1-.07.2-.23.27-.35a1 1 0 0 1 .19-.27c.12-.08.1-.14-.05-.31-.13-.16-.13-.18.04-.25q.1-.04-.1-.06l-.16-.02.3-.14c.16-.08.5-.21.74-.29.65-.21 2.13-.63 2.42-.68.68-.11 1.23.16 1.42.7.05.15.06.3.06.68 0 .44-.01.52-.11.83-.17.5-.37.81-.8 1.26-.2.2-.44.45-.5.54-.13.15-.13.17-.09.28.03.07.16.32.3.56.3.51.33.65.1.5q-.08-.05-.1 0-.01.05-.07.06c-.04 0-.24.05-.45.13s-.46.13-.56.13-.2.02-.21.04c-.05.04-.24 0-.24-.04q0-.05-.15-.2c-.08-.1-.3-.4-.47-.68l-.34-.5-.25.7c-.31.86-.46 1.2-.52 1.2q-.04.01-.1.08-.08.06-.12.05-.05-.01-.06.02-.02.14-.29.15a1 1 0 0 0-.36.1q-.17.08-.28.07a1 1 0 0 0-.32.07c-.25.1-.33.12-.42.07zm3.76-3.68c.37-.18.68-.48.84-.78.17-.32.15-.59-.06-.67a2.5 2.5 0 0 0-1.19.2c-.06.04-.2.3-.19.37q.01.02.13-.12a1 1 0 0 1 .17-.15q.02.01-.03.15c-.19.55-.3 1-.29 1.1.03.1.03.1.17.08.09-.01.29-.1.45-.18m2.42 1.93q-.11 0-.07-.13c.03-.11 0-.26-.05-.26q-.04.02-.12.15-.15.27-.17 0c-.01-.14.05-.35.63-2.06.2-.57.38-1.14.42-1.27q.13-.45.13-.1t.13-.12c.07-.3.07-.3-.04-.34-.07-.04-.09-.07-.09-.18v-.13h-.21l-.22-.02.14-.09q.23-.14.09-.15-.1-.02-.02-.1c.02 0 .03-.07.03-.12q.01-.1.08-.18.07-.06.07-.1c0-.01-.12-.03-.27-.03-.26-.02-.26-.02-.15-.07a109 109 0 0 1 4.75-1.38q.01.03-.2.17a1 1 0 0 0-.22.2q.01.03.22 0h.22l-.3.14q-.5.21-.19.18.24 0 .1.07t.1.09h.16l-.1.1c-.1.1-.13.25-.07.29.14.09-.06.17-1.24.53-.51.16-.95.3-.97.32-.06.05-.14.42-.1.52q.01.07.08.07l.95-.22.94-.23c.1 0 .04.08-.1.15q-.26.13-.06.17t-.04.19q-.12.07-.1.12c0 .03-.05.15-.14.26-.15.22-.17.3-.1.37.06.07-.02.16-.15.2l-.88.21-.84.21c-.1.04-.11.08-.16.33l-.08.33q0 .04.03.1c.04.05.08.06.27.02.18-.03 1.77-.4 2.15-.5l.1-.03-.02.4c-.03.53-.07.67-.22.82-.13.14-.32.2-.99.34-.23.05-.83.2-1.32.34s-1.04.28-1.22.32l-.41.09h-.16zm4.73-1.33.02-.19c-.02-.3.32-2.4.47-2.92.01-.06-.01-.06-.18-.04-.18.02-.2.01-.15-.04.02-.03.15-.1.27-.14q.35-.13.2-.15c-.08 0-.07-.07.09-.73l.2-.9c.04-.16.1-.34.12-.38.06-.1.17-.12.17-.03q.01.1.17 0 .08-.06.02-.1-.09-.08.09-.1.09 0 .1-.1 0-.07.1-.09.1 0 .11.03c0 .07.17.04.7-.09.5-.12 2.98-.72 3.17-.75l.09-.02-.1.08c-.23.2-.26.23-.24.27q.02.03.13.07.4.07-.13.35a1 1 0 0 0-.27.22q-.07.12-.23.17-.3.1-.14.19c.06.05.07.07.04.15-.08.2-.23.28-.85.44a7 7 0 0 0-1.64.55c-.1.09-.1.1-.04.13q.06.05.07.11c0 .18.07.17 1-.06.97-.25.94-.25 1.03.01q.04.15.01.2l-.03.17c0 .05-.04.19-.08.3l-.07.22q.01.02.14.03.18 0 .05.06c-.04.03-.53.16-1.08.3-.54.12-1.06.25-1.16.28q-.32.11-.33.48c0 .2.06.3.13.2.02-.03.2-.1.39-.15l.72-.2c.48-.15 1.12-.3 1.3-.3s.34.15.3.3c-.18.88-.26 1.1-.4 1.1l-.12.05c-.04.02-.53.17-1.1.33l-1.6.46a5 5 0 0 1-1.27.3c-.2 0-.21 0-.19-.07zm2.69-1.89c.1-.03.19-.07.18-.08-.03-.02-.73.14-.73.18s.27-.02.55-.1m2.05 1.28c-.01-.12.22-.85.43-1.44.4-1.08.53-1.5.47-1.52q-.05 0 .08-.21c.07-.11.23-.49.38-.93.13-.4.44-1.25.67-1.88.5-1.39.48-1.3.4-1.34-.08-.03-.56.09-1.6.39a174 174 0 0 1-4.01 1.1q-.11.01.02-.08c.05-.04.22-.14.39-.22.16-.08.27-.15.25-.15s-.33.07-.66.17c-.66.18-1 .24-.93.17.04-.03.44-.2.94-.4.26-.1.36-.17.18-.14a.3.3 0 0 1-.16-.02c-.05-.03-.04-.05.1-.14l.51-.32c.19-.1.34-.22.33-.24q-.01-.03-.12-.04l-.14-.01c-.03 0 .04-.05.13-.1q.3-.16.08-.17c-.1 0-.1 0 .1-.18.11-.1.2-.2.18-.21-.02-.02-.15 0-.3.05s-.41.1-.59.12-.55.1-.85.18c-.3.09-.57.15-.61.14q-.2-.03 1.1-.41c.86-.25.96-.29 1.08-.4a47.19 47.19 0 0 0 5.42-1.67 8 8 0 0 1 2.1-.6c.1 0 .3-.05.77-.21.34-.12.68-.22.74-.22h.12l-.16.1-.34.23-.17.13.13-.03c.08-.01.37-.1.65-.2.54-.16.95-.24.95-.16q-.02.05-.24.16c-.13.07-.23.13-.22.14l.32-.08a8 8 0 0 1 1.22-.29q.1 0 .11.04t.18.02l.18-.03-.2.12c-.3.2-.28.21.18.1.39-.1.85-.17.85-.11 0 .01-.18.09-.4.16-.33.11-.4.14-.4.21-.02.1-.02.1-.87.37-.74.24-1.01.36-1.07.44a.2.2 0 0 1-.13.06 3 3 0 0 0-1.11.39l-.09.07.32-.02c.17-.01.35-.03.4-.05q.07 0 .08.02c0 .02-.15.1-.32.16-.18.07-.35.14-.37.16q-.03.03.03.01c.2-.07 1.15-.29 1.2-.28q.14.05-.74.37c-.72.27-.9.32-.97.26q-.06-.07-.14.05c-.07.08-.23.14-.84.33-.8.24-.9.28-.9.34 0 .04.1.03.58-.08.44-.1.54-.11.52-.08-.01.02-.16.1-.33.16-.43.16-.5.2-.52.31s-.15.14-.18.05c-.03-.06-.16.01-.17.1q-.03.07.15.06c.15 0 .18.02.25.11q.07.1.07.15c0 .04-.54 1.67-.6 1.85q-.11.24-.02-.4.13-.9-.02-.32c-.13.47-.3.98-.46 1.42-.09.22-.17.47-.2.56a1 1 0 0 1-.1.24 1 1 0 0 0-.1.25c0 .1-.1.45-.2.79l-.3.98c-.12.37-.16.43-.2.3q-.03-.09-.1-.06-.08.01-.14-.06l-.07-.09-.04.12a1 1 0 0 1-.49.46c-.16.04-.3.16-.5.41q-.08.12-.12.1a1 1 0 0 1 .06-.28 1 1 0 0 0 .06-.3q-.09-.13-.27.12zm-12.75-7.63q0-.03.04-.04.03 0 .01.04t-.04.04z" style="fill:url(#d);stroke-width:.573556" transform="translate(8227.73 -2580.7)scale(.91787)"/><path d="M-8913.17 2813.43c-.04 0-.32.57-1.2 2.32l-1.04 2.02.03-.12.01-.1-.24.38c-.43.72-.64 1-1.03 1.39q-.23.23-.17.2c.07-.02.48-.23.58-.3q.1-.08.09 0c0 .04.03.04.28-.09.3-.15.81-.39.92-.43l.05-.02q0 .02-.2.15c-.2.14-.36.27-.36.29l.05-.02.14-.08.27-.14.36-.2c.54-.31.81-.5 1.12-.8.14-.13.3-.28.37-.32.44-.3 1.04-.74 1.02-.76l-.34.19c-.19.1-.34.19-.35.18q0-.01.04-.04l1.2-.8c.16-.12-.16.02-1.3.58l-.72.34q0-.03.1-.08l.1-.08s-.16.05-.33.13c-.75.34-.84.38-.85.37l.17-.4.4-.88.33-.76c.24-.55.55-1.4.51-1.43l-.15.28-.18.32-.02.02.2-.57c.17-.45.21-.58.19-.58s-.06.1-.11.2l-.1.2.07-.28.09-.29zm-6.3 1.67h-.07c-.25.04-1.21.27-1.87.44a12 12 0 0 0-1.88.66l.35-.2c.3-.18.28-.17.27-.19-.03-.02-.65.24-1.03.44-1.04.53-1.36.87-1.17 1.24q.09.18.42.23c.27.05.66.03.63-.02l-.06-.02q-.13-.01.04-.1a.3.3 0 0 0 .16-.16q.05-.1.18-.2l.15-.09-.08.18a62 62 0 0 0-1.09 2.2q-.02.02-.08-.02l-.07-.03-.17.37-.18.39.03.03c.04.01-.06.2-.17.33l-.17.28-.41.87-.1.22.59-.07c.6-.08 1.28-.2 1.42-.27l.08-.04-.12.02q-.23 0-.03-.05l.28-.06c.18-.05.19-.05.29-.2l.12-.16.02.12v.12l.2-.07a5.81 5.81 0 0 0 3.2-2.91c.2-.46.28-.74.3-1.17q.02-.48.06-.11.04.3.08.08c.1-.45.03-.74-.22-.98-.18-.18-.39-.23-.96-.27l-.35-.04s.2-.1.47-.2a8 8 0 0 1 1.42-.46c-.01-.02-.4 0-.66.03-.1.01-.2.02-.21.01l.19-.07q.29-.1.2-.1zm2.62.12c-.02 0-1.05 1.88-1.04 1.9q.01 0 .05-.03l.03-.02q.02.02-.21.33l-.42.58c-.12.15-.28.35-.38.44-.15.15-.18.17-.25.16q-.08 0-.08-.08c-.02-.1.1-.39.28-.73.12-.24.14-.27.13-.2q-.04.17.1-.1l.56-1.12.01-.04q-.04.01-.19.25l-.12.2.08-.24q.08-.21.06-.23l-.04-.08q0-.1-.1.1-.09.16-.1.16l.05-.2c.03-.11.06-.21.05-.22q0-.03-.21.35l-.08.14.11-.29q.34-.8-.3.42a9 9 0 0 0-.98 2.35c-.03.19-.02.4.02.5.03.08.17.23.23.25.08.04.08.03.08-.07 0-.17.1-.22.6-.33.23-.05.23-.05.4-.2.3-.28.57-.66.94-1.3l.27-.5c.1-.2.52-1.24.58-1.44q.09-.3-.04-.07l-.08.14.05-.24q.1-.43.06-.39c-.01.02-.1.18-.18.38l-.2.43-.05.07.02-.09.12-.39q.21-.55.17-.56zm2.6.06-.33.01c-.3.02-.33.02-.75.17-.72.24-.96.34-1.11.48q-.15.13-.1.24c.04.08 0 .13-.22.29l-.19.15q.01.02.12.03l.12.01-.29.5c-.32.57-.34.59-.32.53q.02-.06.03-.15l.01-.1-.06.1c-.1.14-.29.55-.34.72q-.12.34-.03.44l.13.1c.04.02.16.03.25.03.18 0 .18 0 .14-.04l-.04-.06.2-.07q.49-.15.8-.31c.2-.11.53-.34.51-.36l-.24.04-.24.04s.11-.12.27-.25c.37-.31.8-.73.78-.75q-.03-.01-.15.06c-.24.15-.8.36-1.13.43-.08.02-.08.02 0-.15.06-.13.07-.13.4-.3.42-.21.57-.31.8-.56.17-.16.3-.35.3-.4l-.14.06a4 4 0 0 1-1.03.39c-.02-.02.09-.22.15-.3l.43-.23a10 10 0 0 0 1.27-.78zm-6.35 1.45q.14 0 .2.07.08.06.1.13c.01.11-.05.35-.16.56-.1.23-.5.81-.68 1.05-.33.4-.9.93-1.53 1.4l-.33.24.07-.17.11-.26.02-.06-.1.06a4 4 0 0 0-.83.78q-.13.2-.04-.03l1.18-2.57c.24-.5.43-.72.72-.87.1-.05.1-.05-.07.18l-.12.18.3-.19q.76-.5 1.17-.5z" style="fill:url(#e);fill-opacity:1;stroke-width:.260688" transform="translate(8227.73 -2580.7)scale(.91787)"/><path d="M-8920.13 2832.83a4 4 0 0 0-.6.23q-.02-.01-.06.01c-.08.07-.56.25-.61.23q-.04 0-.06.03-.03.05-.12.06l-.14.04-.37.16-.55.2c-.1.02-.1.02-.1.11q.01.11-.07.1-.05 0-.06.04-.01.03-.14.1-.19.11-.14.15.1.03.06.08c-.06.08-.34.26-.43.28q-.11.02-.06.06c.03.02.01.04-.18.13-.18.1-.2.11-.15.12s.46-.1.54-.14l.14-.03c.06 0 .18-.03.27-.08.29-.13.6-.23.63-.2q.03.02-.1.28c-.14.3-.2.42-.44 1.08-.27.71-.36 1.1-.2.84l.08-.12a4 4 0 0 1-.23 1.01l.01.04a3 3 0 0 0 .36-.61l-.01.05q-.03.11.09-.12c.11-.23.23-.43.25-.43v.06q.02 0 .14-.25c.12-.25.15-.29.16-.23q.01.02.07 0t.06-.09l.13-.45a20 20 0 0 0 .46-1.45q.06-.1.33-.3c.19-.11.24-.17.23-.2q-.01-.03.04-.06.1-.05.07-.12 0-.08-.08-.02l-.1.03q-.08-.01.15-.13l.25-.14c.06-.05.17-.1.23-.14.13-.07.27-.18.26-.2zm-2.24.62-.12.04a14 14 0 0 1-1.03.45q-.14.08-.04-.05l.04-.08-.14.06-.55.28c-.5.25-.77.42-.95.62q-.27.29-.25.52c.02.25.23.35.85.4q.25.01.24.11c0 .05-.26.33-.42.44l-.93.63-.13.11-.64.42q-.1.07 0 .08c.01 0 .13-.04.25-.1l.18-.07-.03.03q-.09.07-.18.16l-.54.38a7 7 0 0 0-.78.54q0 .08.59-.25a7 7 0 0 1 1.48-.7q.26-.15.19-.07-.05.06 0 .08c.04 0 .07-.01.29-.15a1 1 0 0 1 .31-.15l-.03-.01q-.1 0 .04-.06l.4-.22.44-.28c0-.02.27-.2.3-.2.04 0 .1-.08.1-.13q0-.06.1-.17l.12-.14.03-.03q.07.02-.02-.17l-.03-.17-.04-.17c-.07-.15-.24-.2-.76-.25l-.3-.04q-.12-.05 0-.23c.06-.09.28-.26.33-.26q.03 0 .03-.03t.05-.05l.14-.08q.22-.15.34-.15c.07 0 .17-.04.15-.07l-.07.01q-.1.06-.05-.03.05-.1-.06-.05c-.06.03-.14.03-.1 0l.23-.12.37-.21c.22-.14.43-.26.5-.28q.09-.02.04-.03-.03-.03 0-.04l.06-.04.03-.03zm-4.86.45c-.03 0-.1.1-.13.2l-.05.11-.08.14a59.95 59.95 0 0 1-1.5 2.86c-.04.06-.05.18-.02.22s.22.11.4.14c.17.03.17.03.42-.05.14-.05.25-.07.25-.06.01.03.1.03.16-.02.08-.06.54-.32.56-.32l.1-.09.2-.16.12-.07-.09.26q-.04.05.03.04l.08-.02c.05-.06.05 0-.02.3l-.07.36q0 .11.06-.02l.09-.13q.05-.06.08-.15c.03-.13.14-.37.17-.4l.03-.05.05-.12.06-.1-.01.1v.1a11 11 0 0 0 .84-1.94l-.03.03q-.07.08 0-.09c.03-.08.07-.37.05-.37l-.08.08-.05.09.01-.07.02-.15.06-.36.04-.27q-.05-.03-.07.08-.02.07-.05.07l-.03.03a1 1 0 0 1-.1.26q-.05-.05-.06 0l-.05.15q-.05.13-.06.08c-.02-.05-.39.67-.61 1.2l-.19.38a4 4 0 0 1-.55.2c-.57.2-.66.22-.66.2l.07-.18c.27-.6.54-1.44.53-1.7v-.08l-.04.06-.04.08-.04.05-.03.02.01-.02.24-.9zm.04.09h-.01q-.03.03-.01.06.03.05.03-.03zm-4.73 1.68-.1.02-.11.02q-.02-.01-.07.01c-.02.02-.45.12-.94.24-1.69.4-1.92.47-3 1.01-.7.34-.68.33-.68.41q0 .04.05.03h.04q0 .03.04.04.05 0-.1.07-.2.1-.1.1l.1.02q.05.02.02.06c-.04.05-.31.2-.37.2q-.03 0-.04.03 0 .04-.1.1l-.09.07c.02.02.23-.04.53-.16.42-.16 1.47-.5 1.52-.5.06.02.03.12-.16.5a10 10 0 0 0-.55 1.4l.07-.06.05-.04v.02c-.13.31-.18.52-.13.52l.06-.09.04-.07a17.51 17.51 0 0 1-.26 1.27q-.02.15.06 0a25 25 0 0 1 .8-1.62l.07-.16.03-.06-.01.06q-.05.2-.02.2c.05 0 .14-.22.43-1l.38-1 .1-.23.15-.07.34-.14.2-.08h.01q0 .03-.16.23l-.2.3-.04.11-.23.7c-.2.6-.25.76-.22.78h.04c.04-.04.04-.06.01.3l-.05.38q.05.02.12-.15.1-.22.14-.18.01.03.05-.08l.1-.22q.09-.13.1-.06 0 .06.06-.07l.18-.39q.3-.65.33-.87a4 4 0 0 1 .11-.7q-.02.01 0-.13.01-.2-.05-.1-.08.03-.1-.04c0-.03.05-.06.29-.13q.16-.04.19-.06.04-.06-.1-.05-.18.02.06-.07.12-.05.13-.08t-.03 0l-.08.02q-.02-.01.02-.03l.51-.21.55-.22q.16-.06.07-.07-.05 0-.05-.02zm2.07.13q-.26.02-.56.09c-.45.1-.47.12-.49.2q0 .06-.11.13-.17.11-.12 0 .01-.05-.04-.07l-.05-.02.04-.02.1-.03q.06 0 .02-.02-.03-.01.04-.07.15-.1-.07-.02c-.14.07-.35.14-1.01.35-.61.2-.69.23-.8.35q-.16.14-.06.2c.05.03.05.03.01.1-.03.06-.19.18-.23.18q-.06 0 .06.1c.08.07.08.07.05.17-.05.2-.16.36-.24.34q-.06-.02-.03.06.01.07-.02.07-.04 0-.04.06c0 .08-.05.23-.11.31q-.05.06-.06.23c-.01.2.01.24.22.33.13.05.16.05.2.03l.08-.05q.06-.03.03-.05-.06-.05.04-.05l.35-.07.32-.15.28-.13v-.08q.02-.1-.06-.08t-.04-.02.24-.14l.17-.1c-.05 0 0-.04.06-.06q.07 0 .06-.04 0-.04.04-.06.09-.04.03-.08 0-.01 0-.07 0-.05-.03-.05c-.06 0-.4.12-.67.24l-.3.12c-.04 0 0-.14.06-.22q.06-.07.2-.14c.18-.1.38-.25.33-.27q-.04 0 .02-.04c.1-.04.2-.14.17-.16q-.03-.02.05-.05t.04-.07.01-.04l.02-.02c-.01-.01-.19.04-.4.1-.2.08-.39.13-.4.12s.04-.14.1-.2c.08-.07.3-.17.57-.26.2-.06.9-.18.93-.15s-.13.29-.24.38c-.32.26-.31.25-.33.45-.01.15 0 .18.04.23l.05.07-.07.13c-.12.2-.24.5-.23.51q.02.02-.03.1c-.1.16-.06.23.05.11l.06-.06-.02.08-.05.14-.14.38q0 .06.11-.1.07-.14.1-.1 0 .06.07-.07l.08-.15.08-.11q0-.02.02-.03v.05l-.01.07.02-.07.1-.15.05-.07v.07q0 .07.03.09.02 0 .02-.05a1 1 0 0 1 .07-.19l.28-.44q.01-.05.1 0c.39.19.92.34 1.15.33h.06l-.07-.03-.04-.02h.1q.14.03.15 0t.25 0c.32.03.31.03.24-.03q-.1-.07-.02-.06l.33.02q.3.03.3 0 .03-.01-.02-.03l-.05-.04q0-.03.21-.01c.24.02.61.02.7-.01.05-.02 0-.03-.23-.07-1.2-.22-1.84-.38-2.26-.54q-.3-.12-.15-.12c.1 0 .38-.11.53-.2.18-.13.34-.29.4-.42.1-.21.05-.49-.12-.61q-.22-.18-.66-.16zm-1.37.56h.03q.02.03-.05.05-.13.05-.1 0 .04-.04.12-.05zm1.05.04.16.01c.13.01.16.02.19.06q.03.04.03.08c0 .05-.19.23-.33.33q-.1.07-.2.11l-.09.05.06-.14.12-.32zm-1.18.08.03.01v.01l-.04.01h-.03v-.02zm7.7.05-.05.02q-.03.03.01.02l.06-.02zm-9.8.2-.01.02-.01.07-.02.02q-.05 0 0-.08zm-.32.16-.02.02q-.03.02-.04.05l.04-.01.03-.05zm7.18 1.13-.03.02-.02.02.03-.01zm-.17.1-.06.01-.02.02h.01q.02 0 .06-.02z" style="fill:url(#f);fill-opacity:1;stroke-width:.24508" transform="translate(8227.73 -2580.7)scale(.91787)"/></svg>