<?xml version="1.0" encoding="UTF-8" standalone="no"?>
<!-- Created with Inkscape (http://www.inkscape.org/) -->

<svg
   width="31.70681mm"
   height="31.716232mm"
   viewBox="0 0 31.70681 31.716232"
   version="1.1"
   id="svg1"
   inkscape:version="1.4.4 (dcaf3e7, 2026-05-05)"
   sodipodi:docname="Universal.svg"
   xmlns:inkscape="http://www.inkscape.org/namespaces/inkscape"
   xmlns:sodipodi="http://sodipodi.sourceforge.net/DTD/sodipodi-0.dtd"
   xmlns="http://www.w3.org/2000/svg"
   xmlns:svg="http://www.w3.org/2000/svg">
  <sodipodi:namedview
     id="namedview1"
     pagecolor="#ffffff"
     bordercolor="#000000"
     borderopacity="0.25"
     inkscape:showpageshadow="2"
     inkscape:pageopacity="0.0"
     inkscape:pagecheckerboard="0"
     inkscape:deskcolor="#d1d1d1"
     inkscape:document-units="mm"
     inkscape:zoom="2.1184484"
     inkscape:cx="-37.99951"
     inkscape:cy="34.223161"
     inkscape:window-width="2560"
     inkscape:window-height="1369"
     inkscape:window-x="-8"
     inkscape:window-y="-8"
     inkscape:window-maximized="1"
     inkscape:current-layer="layer1" />
  <defs
     id="defs1" />
  <g
     inkscape:label="Layer 1"
     inkscape:groupmode="layer"
     id="layer1"
     transform="translate(-212.98955,-282.31037)">
    <path
       id="path14"
       style="fill:#f9f9f9"
       d="m 228.857,282.30871 c -3.9842,0.01 -7.9808,1.5928 -11.1595,4.7532 -6.2888,6.2531 -6.276,15.8891 0.03,22.2317 2.1522,2.1647 4.2546,3.3953 7.2171,4.225 5.132,1.4373 11.0231,-0.2241 15.0405,-4.2416 6.2978,-6.2979 6.2798,-15.9008 -0.042,-22.2591 -3.1299,-3.1478 -7.1019,-4.7171 -11.0862,-4.7092 z m -1.111,2.6458 c 0.8021,0 0.8465,0.4649 0.3168,1.8588 -0.5647,1.4858 -0.7544,4.5736 -0.2982,4.8555 0.1348,0.083 0.3274,-0.5062 0.4279,-1.3105 0.1005,-0.8042 0.288,-1.5271 0.4165,-1.6071 0.1286,-0.079 0.2336,-0.3734 0.2336,-0.6537 0,-0.6493 1.5627,-3.2098 1.8505,-3.0319 0.2729,0.1687 0.021,1.1917 -0.294,1.1917 -0.1285,0 -0.2336,0.228 -0.2336,0.5069 0,0.2789 -0.1324,0.5511 -0.2946,0.6051 -0.1624,0.054 -0.2514,0.3235 -0.1984,0.5984 0.077,0.3992 0.2424,0.2787 0.8232,-0.5989 0.9126,-1.3791 1.9514,-2.1109 2.3833,-1.679 0.2302,0.2303 0.045,0.5802 -0.7576,1.4284 -2.078,2.1968 -3.2788,4.8306 -3.2788,7.1923 0,1.3351 0.3749,1.6135 0.6449,0.4791 0.4119,-1.7298 1.6424,-3.7188 3.3383,-5.3961 2.6499,-2.6208 3.4687,-2.6436 5.8079,-0.1602 1.4584,1.5483 3.4209,5.7063 3.4349,7.276 0,0.3784 -1.0882,0.4488 -1.4655,0.094 -0.4089,-0.3844 -2.9309,-0.8255 -4.6958,-0.8155 -1.6502,0.01 -3.5692,0.3303 -4.5512,0.768 -0.291,0.1297 -0.7576,0.31 -1.0366,0.401 -0.8634,0.2808 -0.1239,0.5709 2.3058,0.9048 2.6335,0.3619 4.6937,1.2116 6.6518,2.743 1.9609,1.5338 2.1665,1.9139 1.6366,3.0251 -0.5033,1.0555 -0.655,1.0093 -2.1229,-0.6418 -1.165,-1.3104 -3.6849,-3.1097 -3.8137,-2.7233 -0.047,0.1397 0.448,0.7657 1.0991,1.3911 1.4214,1.3653 3.0851,3.7751 3.0851,4.4685 0,0.4747 -0.027,0.4771 -0.5291,0.047 -0.2911,-0.2492 -0.5292,-0.652 -0.5292,-0.8951 0,-0.2431 -0.1786,-0.5102 -0.3969,-0.5942 -0.2182,-0.084 -0.3969,-0.3348 -0.3969,-0.5576 0,-0.2229 -0.1319,-0.4052 -0.293,-0.4052 -0.1762,0 -0.216,0.1849 -0.1002,0.4631 1.2083,2.903 1.3378,3.7703 0.5622,3.7703 -0.388,0 -0.6981,-0.5432 -0.6981,-1.2232 0,-1.5887 -3.4988,-6.4489 -5.3211,-7.3913 -1.3103,-0.6775 -1.3677,-0.4096 -0.1933,0.9002 2.0326,2.2671 3.3977,5.6004 3.3977,8.2956 0,1.6272 -0.123,1.7475 -2.5135,2.4588 v 0 c -2.4616,0.7325 -7.5587,0.2455 -8.6083,-0.8222 -0.2119,-0.2156 0.1424,-0.7074 1.3116,-1.8226 1.7382,-1.658 2.7851,-3.229 3.5196,-5.2803 0.4685,-1.3086 0.6482,-3.8525 0.2713,-3.8395 -0.1092,0 -0.4092,0.4648 -0.6671,1.0247 -1.1123,2.4152 -4.735,5.1972 -7.8212,6.0058 -1.0558,0.2767 -1.2063,0.2498 -1.9053,-0.3384 -0.4174,-0.3512 -0.6973,-0.7974 -0.6233,-0.9917 0.075,-0.1942 0.8603,-0.496 1.7462,-0.6703 1.6491,-0.3245 4.691,-1.5717 4.701,-1.928 0.01,-0.2973 -1.2607,-0.2398 -1.4495,0.066 -0.2972,0.4809 -2.8462,0.3016 -3.7765,-0.2656 -0.4765,-0.2905 -1.1096,-0.5281 -1.4067,-0.5281 -0.783,0 -1.5637,-0.482 -1.5637,-0.9659 0,-0.313 0.1495,-0.3715 0.5953,-0.2304 2.2532,0.7135 6.7201,0.6963 8.1137,-0.031 0.376,-0.1962 0.8088,-0.3573 0.9617,-0.3582 0.4729,0 1.7043,-0.6503 1.7043,-0.8976 0,-0.1364 -0.5311,-0.1398 -1.2547,-0.01 -3.4916,0.6273 -7.8417,-0.087 -9.7379,-1.5989 l -0.7726,-0.616 0.478,-1.7947 c 0.7489,-2.8106 2.0556,-5.0239 4.0076,-6.7897 1.0142,-0.9133 1.4116,-0.9143 1.603,0 0.7155,3.4194 1.5332,5.0505 3.5646,7.1096 1.6871,1.7101 2.9078,2.4772 2.9078,1.8273 0,-0.222 -0.089,-0.4083 -0.1984,-0.4083 -0.2517,-0.01 -1.5079,-2.6956 -1.9224,-4.1165 -0.4171,-1.43 -0.2412,-5.8207 0.2749,-6.8595 0.2766,-0.5566 0.621,-0.8191 1.1524,-0.8801 0.1461,-0.017 0.2761,-0.026 0.3907,-0.025 z m 1.4516,4.3041 c -0.037,0 -0.062,0.1002 -0.069,0.2832 -0.012,0.2793 0.051,0.4353 0.1385,0.3473 0.088,-0.088 0.098,-0.316 0.021,-0.507 -0.034,-0.086 -0.065,-0.1262 -0.09,-0.1235 z m 0.1958,8.645 c -0.1555,0.01 -0.2862,0.1427 -0.2862,0.3834 0,0.2361 0.1552,0.3287 0.3953,0.2367 0.217,-0.083 0.3301,-0.2583 0.2491,-0.3886 -0.1011,-0.1634 -0.2372,-0.2366 -0.3582,-0.2315 z m 4.9837,1.8794 c -0.092,0 -0.197,0.013 -0.2925,0.051 -0.2111,0.085 -0.1485,0.1472 0.1597,0.1602 0.2793,0.011 0.4353,-0.051 0.3473,-0.139 -0.044,-0.044 -0.1226,-0.069 -0.2145,-0.072 z m -9.7524,1.8196 c -0.1541,0 -0.28,0.1191 -0.28,0.2646 0,0.1455 0.053,0.2645 0.1168,0.2645 0.064,0 0.19,-0.119 0.28,-0.2645 0.09,-0.1455 0.037,-0.2646 -0.1168,-0.2646 z m -7.7778,0.7374 c 0.7392,-0.011 2.4698,0.3726 2.4707,0.6201 v 5e-4 c 0,0.3184 -1.8821,0.2731 -2.4531,-0.059 -0.2577,-0.15 -0.4094,-0.3683 -0.3374,-0.4847 0.031,-0.051 0.1493,-0.074 0.3198,-0.076 z m 19.6686,0.5855 c -0.1455,0 -0.2646,0.1191 -0.2646,0.2646 0,0.1456 0.1191,0.2646 0.2646,0.2646 0.1455,0 0.2646,-0.119 0.2646,-0.2646 0,-0.1455 -0.1191,-0.2646 -0.2646,-0.2646 z" />
  </g>
</svg>
