<?xml version="1.0" encoding="UTF-8" standalone="no"?>
<!-- Created with Inkscape (http://www.inkscape.org/) -->

<svg
   width="19.850893mm"
   height="19.850891mm"
   viewBox="0 0 19.850893 19.850891"
   version="1.1"
   id="svg1"
   inkscape:version="1.4.4 (dcaf3e7, 2026-05-05)"
   sodipodi:docname="SF_Card_Ranked_Special.svg"
   xml:space="preserve"
   inkscape:export-batch-name="SF_Duel"
   inkscape:export-batch-path="SFD_340x459_long"
   xmlns:inkscape="http://www.inkscape.org/namespaces/inkscape"
   xmlns:sodipodi="http://sodipodi.sourceforge.net/DTD/sodipodi-0.dtd"
   xmlns:xlink="http://www.w3.org/1999/xlink"
   xmlns="http://www.w3.org/2000/svg"
   xmlns:svg="http://www.w3.org/2000/svg"><sodipodi:namedview
     id="namedview1"
     pagecolor="#ffffff"
     bordercolor="#000000"
     borderopacity="0.25"
     inkscape:showpageshadow="2"
     inkscape:pageopacity="0.0"
     inkscape:pagecheckerboard="0"
     inkscape:deskcolor="#d1d1d1"
     inkscape:document-units="mm"
     inkscape:zoom="0.02"
     inkscape:cx="-8775"
     inkscape:cy="7175"
     inkscape:window-width="2560"
     inkscape:window-height="1369"
     inkscape:window-x="-8"
     inkscape:window-y="-8"
     inkscape:window-maximized="1"
     inkscape:current-layer="layer1"
     inkscape:lockguides="false"
     showguides="true"><inkscape:page
       x="0"
       y="0"
       width="19.850893"
       height="19.850891"
       id="page1"
       margin="0"
       bleed="0" /></sodipodi:namedview><defs
     id="defs1"><inkscape:path-effect
       effect="bspline"
       id="path-effect1909"
       is_visible="true"
       lpeversion="1.3"
       weight="33.333333"
       steps="2"
       helper_size="0"
       apply_no_weight="true"
       apply_with_weight="true"
       only_selected="false"
       uniform="false" /><linearGradient
       id="linearGradient1008"
       inkscape:collect="always"><stop
         style="stop-color:#d9a6f5;stop-opacity:1"
         offset="0"
         id="stop1008" /><stop
         style="stop-color:#c8d3e8;stop-opacity:1;"
         offset="0.89152539"
         id="stop1010" /><stop
         style="stop-color:#c6d9e7;stop-opacity:1"
         offset="1"
         id="stop1009" /></linearGradient><filter
       inkscape:collect="always"
       style="color-interpolation-filters:sRGB"
       id="filter514"
       x="-0.97199998"
       y="-0.97199998"
       width="2.944"
       height="2.944"><feGaussianBlur
         inkscape:collect="always"
         stdDeviation="268.20905"
         id="feGaussianBlur514" /></filter><linearGradient
       inkscape:collect="always"
       xlink:href="#linearGradient1008"
       id="linearGradient1929"
       gradientUnits="userSpaceOnUse"
       x1="-864.71674"
       y1="2672.5312"
       x2="-860.46918"
       y2="2672.5312" /><linearGradient
       inkscape:collect="always"
       xlink:href="#linearGradient1008"
       id="linearGradient1956"
       gradientUnits="userSpaceOnUse"
       gradientTransform="translate(-1099.9018,273.5358)"
       x1="2516.5293"
       y1="1163.2469"
       x2="3178.7739"
       y2="1163.2469" /></defs><g
     inkscape:label="Слой 1"
     inkscape:groupmode="layer"
     id="layer1"
     transform="translate(5647.2891,-2766.6621)"><circle
       style="opacity:0.5;mix-blend-mode:normal;fill:url(#linearGradient1956);stroke-width:0.264583;filter:url(#filter514)"
       id="circle1955"
       cx="1747.7498"
       cy="1436.7827"
       r="331.12228"
       transform="matrix(1.0343694,0,0,1.0343694,-6633.2089,1026.4051)" /><path
       id="path1899"
       style="fill:#cfd8f0;fill-opacity:0.05;stroke-width:0.827217"
       d="m -5668.0196,2764.5572 h 236.9507 c 4.5527,0 8.2178,3.6652 8.2178,8.2179 v 7.6248 c 0,4.5528 -3.6651,8.218 -8.2178,8.218 h -236.9507 c -4.5528,0 -8.218,-3.6652 -8.218,-8.218 v -7.6248 c 0,-4.5527 3.6652,-8.2179 8.218,-8.2179 z"
       sodipodi:nodetypes="sssssssss" /><path
       style="fill:url(#linearGradient1929);stroke-width:0.264583"
       d="m -863.54982,2671.8217 c -0.27743,0.2568 -0.55483,0.5136 -0.76196,0.7498 -0.20712,0.2361 -0.344,0.4517 -0.38899,0.7339 -0.045,0.2822 0.002,0.6306 0.18086,0.9165 0.17902,0.2859 0.49013,0.509 0.85007,0.6403 0.35994,0.1312 0.76865,0.1706 1.15668,0.1668 0.38803,-0 0.75548,-0.051 1.07979,-0.1978 0.32431,-0.1471 0.60545,-0.3946 0.77226,-0.6523 0.1668,-0.2577 0.21928,-0.5257 0.17902,-0.7807 -0.0403,-0.2549 -0.17337,-0.4967 -0.45743,-0.7845 -0.28405,-0.2878 -0.71892,-0.6215 -1.00475,-0.883 -0.28583,-0.2614 -0.42274,-0.4508 -0.50708,-0.6495 -0.0843,-0.1987 -0.11619,-0.4067 -0.0937,-0.5829 0.0225,-0.1762 0.0994,-0.3206 0.17623,-0.4649 -0.19308,0.1293 -0.38612,0.2586 -0.57924,0.4104 -0.19312,0.1519 -0.38615,0.3262 -0.49769,0.5118 -0.11155,0.1856 -0.14155,0.3825 -0.17155,0.5793 0.13684,0.019 0.27364,0.037 0.40399,0.1395 0.13036,0.1022 0.254,0.2877 0.30928,0.4751 0.0553,0.1875 0.0421,0.377 -0.0216,0.4951 -0.0638,0.118 -0.17812,0.1649 -0.31025,0.1349 -0.13212,-0.03 -0.28208,-0.1369 -0.3477,-0.284 -0.0656,-0.1471 -0.0469,-0.3347 -0.0271,-0.4538 0.0197,-0.1191 0.0403,-0.1695 0.0609,-0.2201 z"
       id="path1880"
       inkscape:path-effect="#path-effect1909"
       inkscape:original-d="m -863.54982,2671.8217 c 0,0 -0.55486,0.5136 -0.8323,0.7705 -0.13685,0.2154 -0.27369,0.431 -0.41053,0.6466 0.0469,0.3488 0.0937,0.6972 0.1406,1.0459 0.31117,0.2231 0.62235,0.4461 0.93353,0.6694 0.40865,0.039 0.8173,0.079 1.22597,0.118 0.3674,-0.047 0.73483,-0.094 1.10223,-0.1405 0.2812,-0.2476 0.56237,-0.495 0.84354,-0.7424 0.0525,-0.268 0.10499,-0.536 0.15748,-0.8043 -0.13311,-0.2416 -0.26619,-0.4834 -0.39928,-0.7252 -0.43492,-0.3339 -0.86979,-0.6676 -1.30471,-1.0012 -0.13685,-0.1892 -0.27369,-0.3786 -0.41053,-0.5678 -0.0319,-0.2082 -0.0637,-0.4162 -0.0956,-0.6244 0.0769,-0.1442 0.23058,-0.4329 0.23058,-0.4329 0,0 -0.38616,0.2585 -0.57925,0.3879 -0.1931,0.1744 -0.38616,0.3487 -0.57923,0.5231 -0.03,0.1968 -0.09,0.5905 -0.09,0.5905 0,0 0.27368,0.037 0.41052,0.056 0.12372,0.1858 0.24744,0.3712 0.37116,0.5567 -0.0132,0.1894 -0.0262,0.3789 -0.0394,0.5681 -0.11435,0.047 -0.22868,0.094 -0.34303,0.1407 -0.14997,-0.1069 -0.29993,-0.2138 -0.4499,-0.3207 0.0188,-0.1873 0.0375,-0.3749 0.0562,-0.5622 0.0206,-0.051 0.0619,-0.1519 0.0619,-0.1519 z"
       transform="matrix(2.4725764,0,0,2.4725764,-3504.5367,-3831.4503)" /><rect
       style="fill:none;fill-opacity:1;stroke-width:0.168676"
       id="rect1"
       width="19.850893"
       height="19.850893"
       x="-5647.2891"
       y="2766.6621"
       inkscape:export-filename="Thunder_icon.svg"
       inkscape:export-xdpi="255.90787"
       inkscape:export-ydpi="255.90787" /></g></svg>
