<?xml version="1.0" encoding="UTF-8" standalone="no"?>
<!-- Created with Inkscape (http://www.inkscape.org/) -->

<svg
   width="19.850893mm"
   height="19.850891mm"
   viewBox="0 0 19.850893 19.850891"
   version="1.1"
   id="svg1"
   inkscape:version="1.4.4 (dcaf3e7, 2026-05-05)"
   sodipodi:docname="SF_Card_Ranked_Special.svg"
   xml:space="preserve"
   inkscape:export-batch-name="SF_Duel"
   inkscape:export-batch-path="SFD_340x459_long"
   xmlns:inkscape="http://www.inkscape.org/namespaces/inkscape"
   xmlns:sodipodi="http://sodipodi.sourceforge.net/DTD/sodipodi-0.dtd"
   xmlns:xlink="http://www.w3.org/1999/xlink"
   xmlns="http://www.w3.org/2000/svg"
   xmlns:svg="http://www.w3.org/2000/svg"><sodipodi:namedview
     id="namedview1"
     pagecolor="#ffffff"
     bordercolor="#000000"
     borderopacity="0.25"
     inkscape:showpageshadow="2"
     inkscape:pageopacity="0.0"
     inkscape:pagecheckerboard="0"
     inkscape:deskcolor="#d1d1d1"
     inkscape:document-units="mm"
     inkscape:zoom="0.02"
     inkscape:cx="-8775"
     inkscape:cy="7175"
     inkscape:window-width="2560"
     inkscape:window-height="1369"
     inkscape:window-x="-8"
     inkscape:window-y="-8"
     inkscape:window-maximized="1"
     inkscape:current-layer="layer1"
     inkscape:lockguides="false"
     showguides="true"><inkscape:page
       x="0"
       y="0"
       width="19.850893"
       height="19.850891"
       id="page1"
       margin="0"
       bleed="0" /></sodipodi:namedview><defs
     id="defs1"><linearGradient
       id="linearGradient1008"
       inkscape:collect="always"><stop
         style="stop-color:#d9a6f5;stop-opacity:1"
         offset="0"
         id="stop1008" /><stop
         style="stop-color:#c8d3e8;stop-opacity:1;"
         offset="0.89152539"
         id="stop1010" /><stop
         style="stop-color:#c6d9e7;stop-opacity:1"
         offset="1"
         id="stop1009" /></linearGradient><filter
       inkscape:collect="always"
       style="color-interpolation-filters:sRGB"
       id="filter514"
       x="-0.97199998"
       y="-0.97199998"
       width="2.944"
       height="2.944"><feGaussianBlur
         inkscape:collect="always"
         stdDeviation="268.20905"
         id="feGaussianBlur514" /></filter><linearGradient
       inkscape:collect="always"
       xlink:href="#linearGradient1008"
       id="linearGradient1932"
       gradientUnits="userSpaceOnUse"
       gradientTransform="matrix(1.1691074,0,0,1.1691074,-4481.511,-347.51714)"
       x1="-992.80267"
       y1="2672.2134"
       x2="-984.52551"
       y2="2672.2134" /><linearGradient
       inkscape:collect="always"
       xlink:href="#linearGradient1008"
       id="linearGradient1956"
       gradientUnits="userSpaceOnUse"
       gradientTransform="translate(-1099.9018,273.5358)"
       x1="2516.5293"
       y1="1163.2469"
       x2="3178.7739"
       y2="1163.2469" /></defs><g
     inkscape:label="Слой 1"
     inkscape:groupmode="layer"
     id="layer1"
     transform="translate(5647.2891,-2766.6621)"><circle
       style="opacity:0.5;mix-blend-mode:normal;fill:url(#linearGradient1956);stroke-width:0.264583;filter:url(#filter514)"
       id="circle1955"
       cx="1747.7498"
       cy="1436.7827"
       r="331.12228"
       transform="matrix(1.0343694,0,0,1.0343694,-6633.2089,1026.4051)" /><path
       id="path1899"
       style="fill:#cfd8f0;fill-opacity:0.05;stroke-width:0.827217"
       d="m -5668.0196,2764.5572 h 236.9507 c 4.5527,0 8.2178,3.6652 8.2178,8.2179 v 7.6248 c 0,4.5528 -3.6651,8.218 -8.2178,8.218 h -236.9507 c -4.5528,0 -8.218,-3.6652 -8.218,-8.218 v -7.6248 c 0,-4.5527 3.6652,-8.2179 8.218,-8.2179 z"
       sodipodi:nodetypes="sssssssss" /><path
       id="path1883"
       style="fill:url(#linearGradient1932);stroke-width:0.0718588"
       d="m -5637.3649,2769.8418 c -0.1459,-0.011 -0.2642,0 -0.3875,0 h -2e-4 c -0.1588,0.011 -0.3257,0.03 -0.4724,0.075 -0.034,0.011 -0.066,0.023 -0.097,0.035 -0.014,0 -0.028,0 -0.042,0.012 -0.3808,0.071 -0.8696,0.1853 -1.336,0.395 -0.4663,0.2099 -0.9102,0.5153 -1.2707,0.9145 -0.3604,0.3992 -0.6375,0.892 -0.8085,1.4011 -0.1711,0.5091 -0.2363,1.0344 -0.2078,1.5476 0.029,0.5132 0.1508,1.0142 0.273,1.5152 0.11,-0.2363 0.2199,-0.4724 0.2705,-0.8247 0.051,-0.3522 0.042,-0.8206 0.1323,-1.1872 0.091,-0.3666 0.2807,-0.6314 0.4707,-0.8964 -0.022,0.1099 -0.045,0.2201 -0.025,0.438 0.019,0.218 0.08,0.5438 0.093,0.8024 0.012,0.2587 -0.024,0.4501 -0.077,0.5825 -0.053,0.1324 -0.1221,0.2056 -0.1608,0.2934 -0.039,0.087 -0.047,0.1892 -0.1079,0.3419 -0.061,0.1528 -0.1752,0.3564 -0.222,0.5987 -0.047,0.2424 -0.027,0.5235 -0.035,0.6925 -0.01,0.169 -0.045,0.2259 -0.1017,0.2626 -0.057,0.037 -0.1345,0.053 -0.2261,0.033 -0.092,-0.02 -0.1976,-0.077 -0.2831,-0.091 -0.086,-0.014 -0.1507,0.014 -0.2159,0.042 0.016,0.1263 0.033,0.2526 0.081,0.3545 0.049,0.1017 0.1303,0.1792 0.1405,0.2544 0.01,0.075 -0.051,0.1488 0.037,0.3075 0.088,0.1589 0.3238,0.4032 0.5071,0.6212 0.1833,0.2178 0.3136,0.4093 0.4887,0.5274 0.1751,0.118 0.3952,0.1629 0.6192,0.167 0.224,0 0.4521,-0.033 0.6191,-0.1064 0.167,-0.074 0.2729,-0.1832 0.3808,-0.3135 0.1079,-0.1304 0.2178,-0.2812 0.3095,-0.3545 0.092,-0.074 0.1649,-0.069 0.2199,-0.03 0.055,0.039 0.092,0.1122 0.022,0.2544 -0.069,0.1426 -0.2444,0.3544 -0.3992,0.5396 -0.1547,0.1853 -0.289,0.3441 -0.3216,0.5194 -0.033,0.1751 0.037,0.3666 0.1242,0.5459 0.087,0.179 0.1934,0.3461 0.3889,0.4703 0.1955,0.1243 0.4806,0.2057 0.7779,0.2546 0.2974,0.049 0.6069,0.066 0.7617,0.055 0.034,0 0.061,0 0.081,-0.011 0.02,0 0.047,0.011 0.081,0.011 0.1548,0.011 0.4644,-0.011 0.7617,-0.055 0.2973,-0.049 0.5824,-0.1303 0.7779,-0.2546 0.1955,-0.1242 0.3014,-0.2913 0.389,-0.4703 0.088,-0.1793 0.1567,-0.3708 0.1242,-0.5459 -0.033,-0.1753 -0.167,-0.3341 -0.3217,-0.5194 -0.1548,-0.1852 -0.3299,-0.397 -0.3992,-0.5396 -0.069,-0.1425 -0.033,-0.2157 0.022,-0.2544 0.055,-0.039 0.1283,-0.043 0.22,0.03 0.092,0.074 0.2016,0.2241 0.3096,0.3545 0.1079,0.1303 0.2137,0.2402 0.3807,0.3135 0.167,0.074 0.3951,0.1099 0.6191,0.1064 0.224,0 0.4441,-0.049 0.6192,-0.167 0.1752,-0.1181 0.3054,-0.3096 0.4887,-0.5274 0.1833,-0.218 0.4195,-0.4623 0.5071,-0.6212 0.088,-0.1587 0.026,-0.232 0.037,-0.3075 0.011,-0.075 0.092,-0.1526 0.1405,-0.2544 0.049,-0.1017 0.065,-0.2282 0.082,-0.3545 -0.065,-0.028 -0.1303,-0.057 -0.2159,-0.042 -0.086,0.014 -0.1914,0.071 -0.283,0.091 -0.092,0.02 -0.1691,0 -0.2261,-0.033 -0.057,-0.037 -0.094,-0.094 -0.1019,-0.2626 -0.01,-0.169 0.012,-0.4501 -0.034,-0.6925 -0.047,-0.2423 -0.1609,-0.4459 -0.222,-0.5987 -0.061,-0.1527 -0.069,-0.2544 -0.1079,-0.3419 -0.039,-0.088 -0.1079,-0.161 -0.1609,-0.2934 -0.053,-0.1324 -0.09,-0.3238 -0.077,-0.5825 0.012,-0.2586 0.073,-0.5844 0.093,-0.8024 0.019,-0.2179 0,-0.3279 -0.025,-0.438 0.1901,0.265 0.3802,0.5298 0.4708,0.8964 0.091,0.3666 0.082,0.835 0.1323,1.1872 0.051,0.3523 0.1605,0.5884 0.2705,0.8247 0.1221,-0.501 0.2444,-1.002 0.2729,-1.5152 0.028,-0.5132 -0.037,-1.0385 -0.2077,-1.5476 -0.171,-0.5091 -0.4481,-1.0019 -0.8085,-1.4011 -0.3605,-0.3992 -0.8044,-0.7046 -1.2707,-0.9145 -0.4664,-0.2097 -0.9552,-0.3237 -1.336,-0.395 -0.014,0 -0.029,0 -0.043,-0.012 -0.031,-0.013 -0.064,-0.024 -0.097,-0.035 -0.1467,-0.044 -0.3136,-0.066 -0.4724,-0.075 -0.1231,-0.011 -0.2413,-0.011 -0.3867,0 z m 2.9681,5.5554 c 5e-4,0 9e-4,0 0,1e-4 0.011,0 0.017,0.011 0.031,0.037 0.026,0.044 0.079,0.1345 0.1049,0.224 0.025,0.09 0.024,0.1791 0.043,0.287 0.019,0.1076 0.06,0.2343 0.097,0.3535 0.037,0.1191 0.069,0.2311 0.054,0.3186 -0.015,0.087 -0.078,0.1507 -0.1376,0.241 -0.059,0.09 -0.1147,0.208 -0.2115,0.3646 -0.097,0.1568 -0.235,0.3526 -0.3501,0.4534 -0.1152,0.1006 -0.2074,0.1064 -0.3428,0.052 -0.1353,-0.055 -0.314,-0.1701 -0.4781,-0.2939 -0.1642,-0.1238 -0.3139,-0.2563 -0.4507,-0.3412 -0.1368,-0.085 -0.2606,-0.1224 -0.3384,-0.1814 -0.078,-0.06 -0.1094,-0.1397 -0.1771,-0.1944 -0.068,-0.055 -0.1714,-0.083 -0.1973,-0.1239 -0.026,-0.041 0.026,-0.092 0.1094,-0.09 0.083,0 0.1987,0.061 0.3009,0.053 0.1022,-0.011 0.1916,-0.08 0.2953,-0.2046 0.1037,-0.1253 0.2218,-0.3037 0.3917,-0.3988 0.1699,-0.095 0.3916,-0.1063 0.5615,-0.1584 0.17,-0.052 0.2881,-0.144 0.3961,-0.2185 0.108,-0.075 0.2059,-0.131 0.2549,-0.1594 0.022,-0.013 0.034,-0.02 0.043,-0.02 z m -5.9372,1e-4 c 0.01,0 0.021,0.011 0.043,0.02 0.049,0.028 0.1469,0.085 0.2549,0.1595 0.108,0.075 0.2261,0.1666 0.396,0.2185 0.1699,0.052 0.3917,0.063 0.5616,0.1583 0.1699,0.095 0.288,0.2735 0.3917,0.3989 0.1037,0.1252 0.193,0.1972 0.2953,0.2044 0.1022,0.011 0.2174,-0.05 0.3009,-0.053 0.084,0 0.1354,0.049 0.1094,0.089 -0.026,0.039 -0.1296,0.068 -0.1973,0.1238 -0.068,0.055 -0.099,0.1353 -0.1771,0.1944 -0.078,0.058 -0.2016,0.096 -0.3384,0.1814 -0.1368,0.085 -0.2865,0.2174 -0.4507,0.3412 -0.1641,0.1239 -0.3428,0.2392 -0.4781,0.294 -0.1354,0.055 -0.2276,0.049 -0.3428,-0.052 -0.1151,-0.1005 -0.2533,-0.2966 -0.3501,-0.4532 -0.097,-0.1568 -0.1523,-0.2745 -0.2116,-0.3648 -0.059,-0.09 -0.1222,-0.1533 -0.1375,-0.2408 -0.015,-0.087 0.017,-0.1998 0.054,-0.3189 0.037,-0.1191 0.077,-0.2454 0.097,-0.3534 0.019,-0.1076 0.017,-0.1973 0.043,-0.2871 0.025,-0.09 0.078,-0.1792 0.1049,-0.2239 0.014,-0.024 0.021,-0.035 0.031,-0.037 5e-4,-1e-4 9e-4,-1e-4 0,-1e-4 z m 2.9687,1.5323 c 0.016,0.011 0.034,0.016 0.055,0.032 0.071,0.051 0.1731,0.165 0.3115,0.4419 0.1385,0.2771 0.3136,0.7169 0.4887,1.1569 -0.029,0.1465 -0.057,0.2932 -0.1405,0.3766 -0.083,0.083 -0.2219,0.1041 -0.34,0.071 -0.01,0 -0.016,0 -0.024,-0.011 -0.01,-0.037 -0.016,-0.067 -0.036,-0.093 -0.045,-0.058 -0.1304,-0.099 -0.1996,-0.1146 -0.041,-0.011 -0.076,-0.011 -0.1139,0 -0.038,-0.013 -0.074,-0.013 -0.1148,0 -0.069,0.014 -0.1547,0.055 -0.1996,0.1146 -0.02,0.025 -0.032,0.056 -0.036,0.093 -0.01,0 -0.016,0 -0.024,0.011 -0.1181,0.033 -0.2565,0.011 -0.34,-0.071 -0.084,-0.083 -0.112,-0.2301 -0.1405,-0.3766 0.1751,-0.44 0.3502,-0.8798 0.4887,-1.1569 0.1385,-0.2769 0.2403,-0.391 0.3116,-0.4419 0.021,-0.015 0.039,-0.024 0.055,-0.032 z m -3.8998,2.4228 c -0.018,0 -0.018,0.011 -0.02,0.033 0,0.042 -0.01,0.1252 0.034,0.2016 0.043,0.076 0.1354,0.1454 0.216,0.2247 0.081,0.08 0.1497,0.1684 0.2015,0.3498 0.052,0.1815 0.086,0.4551 0.1484,0.7474 0.062,0.2923 0.1513,0.6034 0.2405,0.7963 0.089,0.193 0.1786,0.2678 0.3313,0.3629 0.1526,0.095 0.3686,0.2103 0.5313,0.3384 0.1628,0.1283 0.2722,0.2693 0.4205,0.4291 0.1483,0.1598 0.3355,0.3383 0.5126,0.4277 0.1771,0.089 0.3442,0.09 0.4694,0.062 0.1253,-0.027 0.2088,-0.082 0.2664,-0.1383 0.058,-0.056 0.089,-0.1134 0.1484,-0.1498 0.02,-0.012 0.043,-0.023 0.071,-0.029 0.085,0 0.2125,-0.011 0.3285,-0.014 0.1157,0.011 0.2429,0.015 0.3273,0.014 0.028,0.011 0.051,0.018 0.071,0.029 0.059,0.037 0.091,0.094 0.1484,0.1498 0.058,0.056 0.1411,0.1111 0.2664,0.1383 0.1252,0.027 0.2923,0.027 0.4694,-0.062 0.1772,-0.089 0.3643,-0.2679 0.5126,-0.4277 0.1483,-0.1598 0.2578,-0.3008 0.4205,-0.4289 0.1627,-0.1283 0.3787,-0.2436 0.5313,-0.3386 0.1527,-0.095 0.242,-0.1699 0.3313,-0.3628 0.089,-0.193 0.1786,-0.5041 0.2405,-0.7964 0.062,-0.2923 0.097,-0.5658 0.1484,-0.7473 0.052,-0.1815 0.1209,-0.2708 0.2015,-0.3499 0.081,-0.08 0.1728,-0.1483 0.216,-0.2247 0.043,-0.076 0.037,-0.1598 0.034,-0.2016 -9e-4,-0.021 0,-0.033 -0.02,-0.033 v 10e-5 c -0.018,0 -0.053,0.011 -0.1227,0.023 -0.1396,0.033 -0.419,0.099 -0.6206,0.1296 -0.2016,0.03 -0.3254,0.024 -0.4104,0.048 -0.085,0.023 -0.1311,0.075 -0.1584,0.2015 -0.027,0.1268 -0.036,0.3284 -0.047,0.579 -0.012,0.2505 -0.026,0.5501 -0.097,0.7487 -0.071,0.1988 -0.1972,0.2966 -0.2851,0.347 -0.088,0.05 -0.1368,0.053 -0.1497,-0.051 -0.013,-0.1041 0.011,-0.3138 0.01,-0.4349 -0.01,-0.1208 -0.036,-0.1526 -0.1037,-0.1339 -0.068,0.019 -0.1713,0.088 -0.2922,0.1815 -0.121,0.094 -0.2592,0.2116 -0.4637,0.2808 -0.026,0.011 -0.054,0.018 -0.082,0.024 -0.024,-0.043 -0.069,-0.043 -0.1483,-0.028 -0.1181,0.022 -0.311,0.076 -0.5458,0.1006 -0.1466,0.015 -0.3095,0.019 -0.4779,0.016 -0.097,0 -0.1913,-0.011 -0.2794,-0.016 -0.2347,-0.024 -0.4277,-0.08 -0.5458,-0.1006 -0.079,-0.014 -0.1241,-0.014 -0.1482,0.028 -0.028,-0.011 -0.056,-0.015 -0.082,-0.024 -0.2045,-0.069 -0.3428,-0.1872 -0.4637,-0.2808 -0.121,-0.094 -0.2245,-0.1627 -0.2922,-0.1815 -0.068,-0.019 -0.099,0.013 -0.1037,0.1339 -0.01,0.1211 0.019,0.3312 0.01,0.4349 -0.013,0.104 -0.062,0.1004 -0.1498,0.051 -0.088,-0.051 -0.2145,-0.1482 -0.285,-0.347 -0.071,-0.1988 -0.085,-0.4982 -0.097,-0.7487 -0.012,-0.2506 -0.02,-0.4523 -0.047,-0.579 -0.027,-0.1266 -0.074,-0.1784 -0.1585,-0.2015 -0.085,-0.023 -0.2088,-0.018 -0.4104,-0.048 -0.2016,-0.03 -0.4809,-0.097 -0.6206,-0.1296 -0.07,-0.016 -0.1049,-0.024 -0.1227,-0.023 z"
       sodipodi:nodetypes="csssccsssscsscsssssssssscssssssssssssssssscssssssssssssssssscsssssssssscsscssssscssccssssssssssssssssssssssccsssssssssssssssssssssssscsscsscsscssccscsscsssssssssssssscccsssssssssssssccsssssssssssscsscsscsssssssssssss" /><rect
       style="fill:none;fill-opacity:1;stroke-width:0.168676"
       id="rect1"
       width="19.850893"
       height="19.850893"
       x="-5647.2891"
       y="2766.6621"
       inkscape:export-filename="Thunder_icon.svg"
       inkscape:export-xdpi="255.90787"
       inkscape:export-ydpi="255.90787" /></g></svg>
