<?xml version="1.0" encoding="UTF-8" standalone="no"?>
<!-- Created with Inkscape (http://www.inkscape.org/) -->

<svg
   width="19.850893mm"
   height="19.850891mm"
   viewBox="0 0 19.850893 19.850891"
   version="1.1"
   id="svg1"
   inkscape:version="1.4.4 (dcaf3e7, 2026-05-05)"
   sodipodi:docname="SF_Card_Ranked_Special.svg"
   xml:space="preserve"
   inkscape:export-batch-name="SF_Duel"
   inkscape:export-batch-path="SFD_340x459_long"
   xmlns:inkscape="http://www.inkscape.org/namespaces/inkscape"
   xmlns:sodipodi="http://sodipodi.sourceforge.net/DTD/sodipodi-0.dtd"
   xmlns:xlink="http://www.w3.org/1999/xlink"
   xmlns="http://www.w3.org/2000/svg"
   xmlns:svg="http://www.w3.org/2000/svg"><sodipodi:namedview
     id="namedview1"
     pagecolor="#ffffff"
     bordercolor="#000000"
     borderopacity="0.25"
     inkscape:showpageshadow="2"
     inkscape:pageopacity="0.0"
     inkscape:pagecheckerboard="0"
     inkscape:deskcolor="#d1d1d1"
     inkscape:document-units="mm"
     inkscape:zoom="0.02"
     inkscape:cx="-8775"
     inkscape:cy="7175"
     inkscape:window-width="2560"
     inkscape:window-height="1369"
     inkscape:window-x="-8"
     inkscape:window-y="-8"
     inkscape:window-maximized="1"
     inkscape:current-layer="layer1"
     inkscape:lockguides="false"
     showguides="true"><inkscape:page
       x="0"
       y="0"
       width="19.850893"
       height="19.850891"
       id="page1"
       margin="0"
       bleed="0" /></sodipodi:namedview><defs
     id="defs1"><linearGradient
       id="linearGradient37"
       inkscape:collect="always"><stop
         style="stop-color:#d9a6f5;stop-opacity:1"
         offset="0"
         id="stop35" /><stop
         style="stop-color:#c8d3e8;stop-opacity:1;"
         offset="0.64162618"
         id="stop36" /><stop
         style="stop-color:#d2dbf3;stop-opacity:1"
         offset="1"
         id="stop37" /></linearGradient><linearGradient
       id="linearGradient1008"
       inkscape:collect="always"><stop
         style="stop-color:#d9a6f5;stop-opacity:1"
         offset="0"
         id="stop1008" /><stop
         style="stop-color:#c8d3e8;stop-opacity:1;"
         offset="0.89152539"
         id="stop1010" /><stop
         style="stop-color:#c6d9e7;stop-opacity:1"
         offset="1"
         id="stop1009" /></linearGradient><filter
       inkscape:collect="always"
       style="color-interpolation-filters:sRGB"
       id="filter514"
       x="-0.97199998"
       y="-0.97199998"
       width="2.944"
       height="2.944"><feGaussianBlur
         inkscape:collect="always"
         stdDeviation="268.20905"
         id="feGaussianBlur514" /></filter><linearGradient
       inkscape:collect="always"
       xlink:href="#linearGradient37"
       id="linearGradient1931"
       gradientUnits="userSpaceOnUse"
       gradientTransform="matrix(0.88083686,0,0,0.88083686,-4739.7442,422.80166)"
       x1="-1025.4602"
       y1="2672.2153"
       x2="-1012.6459"
       y2="2672.2153" /><linearGradient
       inkscape:collect="always"
       xlink:href="#linearGradient1008"
       id="linearGradient1956"
       gradientUnits="userSpaceOnUse"
       gradientTransform="translate(-1099.9018,273.5358)"
       x1="2516.5293"
       y1="1163.2469"
       x2="3178.7739"
       y2="1163.2469" /></defs><g
     inkscape:label="Слой 1"
     inkscape:groupmode="layer"
     id="layer1"
     transform="translate(5647.2891,-2766.6621)"><circle
       style="opacity:0.5;mix-blend-mode:normal;fill:url(#linearGradient1956);stroke-width:0.264583;filter:url(#filter514)"
       id="circle1955"
       cx="1747.7498"
       cy="1436.7827"
       r="331.12228"
       transform="matrix(1.0343694,0,0,1.0343694,-6633.2089,1026.4051)" /><path
       id="path1899"
       style="fill:#cfd8f0;fill-opacity:0.05;stroke-width:0.827217"
       d="m -5668.0196,2764.5572 h 236.9507 c 4.5527,0 8.2178,3.6652 8.2178,8.2179 v 7.6248 c 0,4.5528 -3.6651,8.218 -8.2178,8.218 h -236.9507 c -4.5528,0 -8.218,-3.6652 -8.218,-8.218 v -7.6248 c 0,-4.5527 3.6652,-8.2179 8.218,-8.2179 z"
       sodipodi:nodetypes="sssssssss" /><path
       id="path1882"
       style="fill:url(#linearGradient1931);stroke-width:0.283083"
       d="m -5642.9933,2770.9441 1.6216,4.3242 0.9394,-0.9396 0.3171,0.4428 v 0.2196 l -0.312,0.3085 -0.016,2.5493 0.3277,0.3311 v 0.1825 l -0.3352,0.4653 -0.9214,-0.9214 -1.6353,4.3104 4.3243,-1.6214 -0.9431,-0.9431 0.4219,-0.3025 h 0.2444 l 0.3086,0.3122 2.549,0.016 0.3313,-0.3276 h 0.1576 l 0.4734,0.3405 -0.9051,0.905 4.3114,1.6352 -1.6224,-4.3242 -0.9618,0.9618 -0.2837,-0.3956 v -0.2779 l 0.3121,-0.3086 0.016,-2.5492 -0.3277,-0.332 v -0.1895 l 0.3317,-0.4609 0.9139,0.9138 1.6356,-4.3109 -4.3246,1.6219 0.9586,0.9586 -0.4158,0.298 h -0.2542 l -0.3086,-0.3122 -2.5495,-0.015 -0.3317,0.3272 -0.2156,4e-4 -0.4526,-0.326 0.9313,-0.931 z m 0.1405,5.6431 1.3508,1.0588 v -2.1174 z m 5.4891,-5.489 -1.0578,1.3509 h 2.1165 z m -1.0582,9.6278 1.0582,1.3505 1.0587,-1.351 z m 5.1969,-5.1969 v 2.1165 l 1.3505,-1.0584 z" /><rect
       style="fill:none;fill-opacity:1;stroke-width:0.168676"
       id="rect1"
       width="19.850893"
       height="19.850893"
       x="-5647.2891"
       y="2766.6621"
       inkscape:export-filename="Thunder_icon.svg"
       inkscape:export-xdpi="255.90787"
       inkscape:export-ydpi="255.90787" /></g></svg>
