<?xml version="1.0" encoding="UTF-8" standalone="no"?>
<!-- Created with Inkscape (http://www.inkscape.org/) -->

<svg
   width="19.850893mm"
   height="19.850891mm"
   viewBox="0 0 19.850893 19.850891"
   version="1.1"
   id="svg1"
   inkscape:version="1.4.4 (dcaf3e7, 2026-05-05)"
   sodipodi:docname="SF_Card_Ranked_Special.svg"
   xml:space="preserve"
   inkscape:export-batch-name="SF_Duel"
   inkscape:export-batch-path="SFD_340x459_long"
   xmlns:inkscape="http://www.inkscape.org/namespaces/inkscape"
   xmlns:sodipodi="http://sodipodi.sourceforge.net/DTD/sodipodi-0.dtd"
   xmlns:xlink="http://www.w3.org/1999/xlink"
   xmlns="http://www.w3.org/2000/svg"
   xmlns:svg="http://www.w3.org/2000/svg"><sodipodi:namedview
     id="namedview1"
     pagecolor="#ffffff"
     bordercolor="#000000"
     borderopacity="0.25"
     inkscape:showpageshadow="2"
     inkscape:pageopacity="0.0"
     inkscape:pagecheckerboard="0"
     inkscape:deskcolor="#d1d1d1"
     inkscape:document-units="mm"
     inkscape:zoom="0.02"
     inkscape:cx="-8775"
     inkscape:cy="7175"
     inkscape:window-width="2560"
     inkscape:window-height="1369"
     inkscape:window-x="-8"
     inkscape:window-y="-8"
     inkscape:window-maximized="1"
     inkscape:current-layer="layer1"
     inkscape:lockguides="false"
     showguides="true"><inkscape:page
       x="0"
       y="0"
       width="19.850893"
       height="19.850891"
       id="page1"
       margin="0"
       bleed="0" /></sodipodi:namedview><defs
     id="defs1"><linearGradient
       id="linearGradient37"
       inkscape:collect="always"><stop
         style="stop-color:#d9a6f5;stop-opacity:1"
         offset="0"
         id="stop35" /><stop
         style="stop-color:#c8d3e8;stop-opacity:1;"
         offset="0.64162618"
         id="stop36" /><stop
         style="stop-color:#d2dbf3;stop-opacity:1"
         offset="1"
         id="stop37" /></linearGradient><linearGradient
       id="linearGradient1008"
       inkscape:collect="always"><stop
         style="stop-color:#d9a6f5;stop-opacity:1"
         offset="0"
         id="stop1008" /><stop
         style="stop-color:#c8d3e8;stop-opacity:1;"
         offset="0.89152539"
         id="stop1010" /><stop
         style="stop-color:#c6d9e7;stop-opacity:1"
         offset="1"
         id="stop1009" /></linearGradient><filter
       inkscape:collect="always"
       style="color-interpolation-filters:sRGB"
       id="filter514"
       x="-0.97199998"
       y="-0.97199998"
       width="2.944"
       height="2.944"><feGaussianBlur
         inkscape:collect="always"
         stdDeviation="268.20905"
         id="feGaussianBlur514" /></filter><linearGradient
       inkscape:collect="always"
       xlink:href="#linearGradient37"
       id="linearGradient1930"
       gradientUnits="userSpaceOnUse"
       gradientTransform="matrix(0.66101179,0,0,0.66101179,-5021.7395,1012.6478)"
       x1="-941.29962"
       y1="2668.5452"
       x2="-921.37323"
       y2="2668.5452" /><linearGradient
       inkscape:collect="always"
       xlink:href="#linearGradient1008"
       id="linearGradient1956"
       gradientUnits="userSpaceOnUse"
       gradientTransform="translate(-1099.9018,273.5358)"
       x1="2516.5293"
       y1="1163.2469"
       x2="3178.7739"
       y2="1163.2469" /></defs><g
     inkscape:label="Слой 1"
     inkscape:groupmode="layer"
     id="layer1"
     transform="translate(5647.2891,-2766.6621)"><circle
       style="opacity:0.5;mix-blend-mode:normal;fill:url(#linearGradient1956);stroke-width:0.264583;filter:url(#filter514)"
       id="circle1955"
       cx="1747.7498"
       cy="1436.7827"
       r="331.12228"
       transform="matrix(1.0343694,0,0,1.0343694,-6633.2089,1026.4051)" /><path
       id="path1899"
       style="fill:#cfd8f0;fill-opacity:0.05;stroke-width:0.827217"
       d="m -5668.0196,2764.5572 h 236.9507 c 4.5527,0 8.2178,3.6652 8.2178,8.2179 v 7.6248 c 0,4.5528 -3.6651,8.218 -8.2178,8.218 h -236.9507 c -4.5528,0 -8.218,-3.6652 -8.218,-8.218 v -7.6248 c 0,-4.5527 3.6652,-8.2179 8.218,-8.2179 z"
       sodipodi:nodetypes="sssssssss" /><path
       id="path1881"
       style="fill:url(#linearGradient1930);stroke-width:0.174892"
       d="m -5637.3638,2770.0018 a 6.5858131,6.5858131 0 0 0 -6.5858,6.5858 6.5858131,6.5858131 0 0 0 6.5858,6.5858 6.5858131,6.5858131 0 0 0 6.5859,-6.5858 6.5858131,6.5858131 0 0 0 -6.5859,-6.5858 z m 1.2922,2.3075 c 0.5607,0.1823 1.1216,0.3644 1.6594,0.7586 0.5381,0.3943 1.0534,1.0005 1.3828,1.7732 0.3295,0.7727 0.4731,1.7119 0.3803,2.6162 -0.093,0.9043 -0.4225,1.7735 -1.0061,2.5131 -0.5836,0.7394 -1.421,1.3494 -2.1779,1.6788 -0.7571,0.3295 -1.4336,0.3782 -2.0155,0.133 -0.5818,-0.2454 -1.0688,-0.7849 -1.2529,-1.4071 -0.184,-0.6221 -0.065,-1.3264 0.3455,-1.8644 0.4099,-0.5379 1.1108,-0.9097 1.726,-1.3496 0.615,-0.4399 1.1441,-0.9477 1.4613,-1.5749 0.3172,-0.6274 0.4224,-1.374 0.3032,-1.94 -0.1191,-0.566 -0.4626,-0.9515 -0.8061,-1.3369 z m -2.074,0.3542 c 0.3358,-0.012 0.6512,0.075 0.8775,0.2671 0.2585,0.2182 0.4002,0.5703 0.4424,0.9216 0.043,0.3514 -0.015,0.702 -0.1805,0.9578 -0.1646,0.2558 -0.4361,0.4171 -0.7305,0.4915 -0.2945,0.074 -0.6117,0.062 -0.851,-0.016 -0.2391,-0.079 -0.4004,-0.2242 -0.4915,-0.4238 -0.092,-0.1998 -0.1126,-0.4538 -0.1333,-0.7079 0,-0.049 -0.011,-0.099 -0.1393,-0.043 -0.1357,0.056 -0.4054,0.2149 -0.6289,0.3936 -0.2234,0.1787 -0.4005,0.3766 -0.5776,0.5745 0.074,-0.3749 0.1508,-0.7497 0.3297,-1.0834 0.1787,-0.3339 0.4607,-0.6267 0.8033,-0.8616 0.3426,-0.2348 0.7457,-0.4116 1.1349,-0.4579 0.049,-0.012 0.097,-0.012 0.1448,-0.012 z m 1.4493,5.6603 c -0.146,-0.011 -0.2989,0.012 -0.4461,0.049 -0.2945,0.074 -0.566,0.2357 -0.7307,0.4915 -0.1646,0.2559 -0.2225,0.6065 -0.1803,0.9578 0.043,0.3513 0.1838,0.7035 0.4423,0.9217 0.2586,0.2181 0.6337,0.3022 1.0227,0.2558 0.3891,-0.046 0.7919,-0.2232 1.1344,-0.4582 0.3426,-0.2347 0.6251,-0.5276 0.8038,-0.8614 0.1787,-0.3337 0.2539,-0.7085 0.3293,-1.0835 -0.177,0.1979 -0.3539,0.3959 -0.5773,0.5745 -0.2234,0.1788 -0.4934,0.3383 -0.6292,0.3935 -0.1355,0.055 -0.1377,0.012 -0.1394,-0.043 v -4e-4 c -0.021,-0.2539 -0.043,-0.508 -0.1331,-0.7077 -0.092,-0.1999 -0.2524,-0.3454 -0.4917,-0.4243 -0.1195,-0.039 -0.2587,-0.062 -0.4047,-0.065 z" /><rect
       style="fill:none;fill-opacity:1;stroke-width:0.168676"
       id="rect1"
       width="19.850893"
       height="19.850893"
       x="-5647.2891"
       y="2766.6621"
       inkscape:export-filename="Thunder_icon.svg"
       inkscape:export-xdpi="255.90787"
       inkscape:export-ydpi="255.90787" /></g></svg>
