<?xml version="1.0" encoding="UTF-8" standalone="no"?>
<!-- Created with Inkscape (http://www.inkscape.org/) -->

<svg
   width="19.850893mm"
   height="19.850891mm"
   viewBox="0 0 19.850893 19.850891"
   version="1.1"
   id="svg1"
   inkscape:version="1.4.4 (dcaf3e7, 2026-05-05)"
   sodipodi:docname="SF_Card_Ranked_Special.svg"
   xml:space="preserve"
   inkscape:export-batch-name="SF_Duel"
   inkscape:export-batch-path="SFD_340x459_long"
   xmlns:inkscape="http://www.inkscape.org/namespaces/inkscape"
   xmlns:sodipodi="http://sodipodi.sourceforge.net/DTD/sodipodi-0.dtd"
   xmlns:xlink="http://www.w3.org/1999/xlink"
   xmlns="http://www.w3.org/2000/svg"
   xmlns:svg="http://www.w3.org/2000/svg"><sodipodi:namedview
     id="namedview1"
     pagecolor="#ffffff"
     bordercolor="#000000"
     borderopacity="0.25"
     inkscape:showpageshadow="2"
     inkscape:pageopacity="0.0"
     inkscape:pagecheckerboard="0"
     inkscape:deskcolor="#d1d1d1"
     inkscape:document-units="mm"
     inkscape:zoom="0.02"
     inkscape:cx="-8775"
     inkscape:cy="7175"
     inkscape:window-width="2560"
     inkscape:window-height="1369"
     inkscape:window-x="-8"
     inkscape:window-y="-8"
     inkscape:window-maximized="1"
     inkscape:current-layer="layer1"
     inkscape:lockguides="false"
     showguides="true"><inkscape:page
       x="0"
       y="0"
       width="19.850893"
       height="19.850891"
       id="page1"
       margin="0"
       bleed="0" /></sodipodi:namedview><defs
     id="defs1"><linearGradient
       id="linearGradient37"
       inkscape:collect="always"><stop
         style="stop-color:#d9a6f5;stop-opacity:1"
         offset="0"
         id="stop35" /><stop
         style="stop-color:#c8d3e8;stop-opacity:1;"
         offset="0.64162618"
         id="stop36" /><stop
         style="stop-color:#d2dbf3;stop-opacity:1"
         offset="1"
         id="stop37" /></linearGradient><linearGradient
       id="linearGradient1008"
       inkscape:collect="always"><stop
         style="stop-color:#d9a6f5;stop-opacity:1"
         offset="0"
         id="stop1008" /><stop
         style="stop-color:#c8d3e8;stop-opacity:1;"
         offset="0.89152539"
         id="stop1010" /><stop
         style="stop-color:#c6d9e7;stop-opacity:1"
         offset="1"
         id="stop1009" /></linearGradient><filter
       inkscape:collect="always"
       style="color-interpolation-filters:sRGB"
       id="filter514"
       x="-0.97199998"
       y="-0.97199998"
       width="2.944"
       height="2.944"><feGaussianBlur
         inkscape:collect="always"
         stdDeviation="268.20905"
         id="feGaussianBlur514" /></filter><linearGradient
       inkscape:collect="always"
       xlink:href="#linearGradient37"
       id="linearGradient1925"
       gradientUnits="userSpaceOnUse"
       gradientTransform="matrix(2.5548461,0,0,2.5548461,-3281.3323,-4051.3518)"
       x1="-924.64893"
       y1="2672.5444"
       x2="-919.71381"
       y2="2672.5444" /><linearGradient
       inkscape:collect="always"
       xlink:href="#linearGradient1008"
       id="linearGradient1956"
       gradientUnits="userSpaceOnUse"
       gradientTransform="translate(-1099.9018,273.5358)"
       x1="2516.5293"
       y1="1163.2469"
       x2="3178.7739"
       y2="1163.2469" /></defs><g
     inkscape:label="Слой 1"
     inkscape:groupmode="layer"
     id="layer1"
     transform="translate(5647.2891,-2766.6621)"><circle
       style="opacity:0.5;mix-blend-mode:normal;fill:url(#linearGradient1956);stroke-width:0.264583;filter:url(#filter514)"
       id="circle1955"
       cx="1747.7498"
       cy="1436.7827"
       r="331.12228"
       transform="matrix(1.0343694,0,0,1.0343694,-6633.2089,1026.4051)" /><path
       id="path1899"
       style="fill:#cfd8f0;fill-opacity:0.05;stroke-width:0.827217"
       d="m -5668.0196,2764.5572 h 236.9507 c 4.5527,0 8.2178,3.6652 8.2178,8.2179 v 7.6248 c 0,4.5528 -3.6651,8.218 -8.2178,8.218 h -236.9507 c -4.5528,0 -8.218,-3.6652 -8.218,-8.218 v -7.6248 c 0,-4.5527 3.6652,-8.2179 8.218,-8.2179 z"
       sodipodi:nodetypes="sssssssss" /><path
       id="path1877"
       style="fill:url(#linearGradient1925);stroke-width:0.675969"
       d="m -5640.0095,2770.2583 c 0.249,0.144 0.4974,0.2878 0.5453,0.5323 0.048,0.2443 -0.105,0.5884 -0.507,0.9187 -0.4023,0.3306 -1.0545,0.6466 -1.6292,1.0828 -0.5747,0.4358 -1.0718,0.991 -1.3783,1.5275 -0.3065,0.5362 -0.4218,1.0544 -0.4793,1.4139 -0.057,0.3594 -0.058,0.5592 -0.058,0.7604 0.6705,-0.6131 1.3413,-1.2251 2.1507,-1.6516 0.8095,-0.4263 1.7584,-0.6658 2.5535,-0.6561 0.795,0.012 1.4366,0.2675 1.8866,0.5453 0.45,0.2776 0.7093,0.5748 0.8912,0.8619 0.1819,0.2874 0.2868,0.5659 0.3921,0.8438 0.067,-0.728 0.1334,-1.4563 0.033,-2.1651 -0.1004,-0.709 -0.3678,-1.3986 -0.866,-2.0214 -0.4983,-0.6229 -1.2263,-1.1776 -1.8537,-1.4985 -0.6275,-0.3209 -1.1539,-0.4074 -1.6807,-0.4939 z m 2.7145,0.1015 c 0.613,0.6704 1.2266,1.3414 1.6529,2.1508 0.4264,0.8093 0.6657,1.757 0.6562,2.5519 -0.012,0.7951 -0.2689,1.4367 -0.5466,1.8868 -0.2777,0.45 -0.5748,0.7093 -0.8621,0.8911 -0.2873,0.182 -0.5646,0.288 -0.8423,0.3935 0.728,0.066 1.4551,0.1334 2.1638,0.033 0.7088,-0.1003 1.3985,-0.3693 2.0213,-0.8674 0.6228,-0.4982 1.1776,-1.2263 1.4985,-1.8538 0.3209,-0.6275 0.4075,-1.1537 0.4938,-1.6805 -0.1437,0.249 -0.2878,0.4987 -0.532,0.5465 -0.2444,0.048 -0.5885,-0.1062 -0.9189,-0.5083 -0.3305,-0.4023 -0.6468,-1.0531 -1.0826,-1.6279 -0.4359,-0.5746 -0.9912,-1.0731 -1.5275,-1.3796 -0.5365,-0.3066 -1.0533,-0.4218 -1.4128,-0.4793 -0.3594,-0.058 -0.5605,-0.057 -0.7617,-0.057 z m -1.8246,4.3964 c -0.1793,0.012 -0.3576,0.022 -0.5347,0.048 -0.7088,0.1004 -1.3985,0.368 -2.0213,0.8662 -0.6228,0.4982 -1.1776,1.2262 -1.4985,1.8538 -0.3209,0.6272 -0.4075,1.1537 -0.4938,1.6805 0.1437,-0.2491 0.2878,-0.4974 0.532,-0.5452 0.2444,-0.048 0.5884,0.1061 0.9189,0.5081 0.3305,0.4025 0.6467,1.0531 1.0826,1.628 0.4359,0.5748 0.9926,1.0718 1.5289,1.3783 0.5364,0.3067 1.0533,0.4218 1.4127,0.4793 0.3595,0.058 0.5593,0.058 0.7604,0.058 -0.613,-0.6703 -1.2253,-1.3413 -1.6516,-2.1507 -0.4263,-0.8093 -0.6658,-1.757 -0.6562,-2.552 0.012,-0.7951 0.2676,-1.4379 0.5453,-1.8881 0.2777,-0.4499 0.5748,-0.7079 0.8621,-0.8898 0.2873,-0.1819 0.566,-0.288 0.8437,-0.3934 -0.546,-0.05 -1.0927,-0.1015 -1.6305,-0.081 z m 7.9439,1.9252 c -0.6704,0.6129 -1.3398,1.2252 -2.1494,1.6514 -0.8094,0.4263 -1.7582,0.6658 -2.5533,0.6564 -0.7951,-0.012 -1.4367,-0.2678 -1.8867,-0.5456 -0.4499,-0.2776 -0.7092,-0.5748 -0.8912,-0.8619 -0.1818,-0.2874 -0.2867,-0.5659 -0.392,-0.8436 -0.066,0.7278 -0.1349,1.4565 -0.035,2.1651 0.1003,0.7088 0.3692,1.3986 0.8674,2.0212 0.4982,0.6229 1.2262,1.1778 1.8536,1.4987 0.6275,0.3209 1.1539,0.4072 1.6807,0.4937 -0.249,-0.1438 -0.4974,-0.2878 -0.5453,-0.5321 -0.048,-0.2445 0.105,-0.5886 0.5069,-0.9189 0.4025,-0.3304 1.0533,-0.6466 1.628,-1.0825 0.5747,-0.4361 1.0732,-0.9926 1.3796,-1.5291 0.3066,-0.5362 0.4218,-1.0531 0.4793,-1.4126 0.057,-0.3594 0.057,-0.5592 0.057,-0.7602 z" /><rect
       style="fill:none;fill-opacity:1;stroke-width:0.168676"
       id="rect1"
       width="19.850893"
       height="19.850893"
       x="-5647.2891"
       y="2766.6621"
       inkscape:export-filename="Thunder_icon.svg"
       inkscape:export-xdpi="255.90787"
       inkscape:export-ydpi="255.90787" /></g></svg>
