<?xml version="1.0" encoding="UTF-8" standalone="no"?>
<svg
   viewBox="0 -28 615.52603 397.89117"
   version="1.1"
   id="svg1"
   sodipodi:docname="view.svg"
   inkscape:version="1.4.4 (dcaf3e7, 2026-05-05)"
   width="615.526"
   height="397.89117"
   xml:space="preserve"
   xmlns:inkscape="http://www.inkscape.org/namespaces/inkscape"
   xmlns:sodipodi="http://sodipodi.sourceforge.net/DTD/sodipodi-0.dtd"
   xmlns="http://www.w3.org/2000/svg"
   xmlns:svg="http://www.w3.org/2000/svg"><defs
     id="defs1" /><sodipodi:namedview
     id="namedview1"
     pagecolor="#ffffff"
     bordercolor="#000000"
     borderopacity="0.25"
     inkscape:showpageshadow="2"
     inkscape:pageopacity="0.0"
     inkscape:pagecheckerboard="0"
     inkscape:deskcolor="#d1d1d1"
     inkscape:zoom="0.82104489"
     inkscape:cx="874.49542"
     inkscape:cy="197.91853"
     inkscape:window-width="2560"
     inkscape:window-height="1369"
     inkscape:window-x="-8"
     inkscape:window-y="-8"
     inkscape:window-maximized="1"
     inkscape:current-layer="svg1" /><g
     id="g1"
     transform="matrix(1.1845185,0,0,1.1845185,-5.9225925e-4,-136.81698)"
     style="fill:#ead8f4;fill-opacity:1"><circle
       cx="259.823"
       cy="259.866"
       r="80"
       id="circle1"
       style="fill:#ead8f4;fill-opacity:1" /><path
       d="m 511.673,237.706 c -61.494,-74.31 -154.579,-145.84 -251.85,-145.84 -97.29,0 -190.397,71.58 -251.85,145.84 -10.63,12.84 -10.63,31.48 0,44.32 15.45,18.67 47.84,54.71 91.1,86.2 108.949,79.312 212.311,79.487 321.5,0 43.26,-31.49 75.65,-67.53 91.1,-86.2 10.599,-12.815 10.654,-31.438 0,-44.32 z m -251.85,-89.84 c 61.76,0 112,50.24 112,112 0,61.76 -50.24,112 -112,112 -61.76,0 -112,-50.24 -112,-112 0,-61.76 50.24,-112 112,-112 z"
       id="path1"
       style="fill:#ead8f4;fill-opacity:1" /></g></svg>
